<?xml version="1.0" encoding="UTF-8"?>
<svg width="62px" height="62px" viewBox="0 0 62 62" version="1.1" xmlns="http://www.w3.org/2000/svg" xmlns:xlink="http://www.w3.org/1999/xlink">
    <!-- Generator: Sketch 51.3 (57544) - http://www.bohemiancoding.com/sketch -->
    <title>Group 5</title>
    <desc>Created with Sketch.</desc>
    <defs></defs>
    <g id="Page-1" stroke="none" stroke-width="1" fill="none" fill-rule="evenodd">
        <g id="V2-b" transform="translate(-1009.000000, -2337.000000)">
            <g id="Group-5" transform="translate(1010.000000, 2338.000000)">
                <circle id="Oval-2-Copy" stroke="#FFFFFF" stroke-width="0.5" fill-opacity="0.15" fill="#FFFFFF" cx="30" cy="30" r="30"></circle>
                <g id="Group-3" transform="translate(17.538462, 13.846154)">
                    <path d="M19.7649192,34.3135266 C19.7649192,34.6214937 19.5801311,34.900264 19.2964025,35.0184858 C19.0112174,35.1367113 18.6838442,35.072489 18.4670183,34.8535544 L12.9232632,29.2910751 L7.37950808,34.8535544 C7.16270826,35.072489 6.83533877,35.1367076 6.55012388,35.0184858 C6.26639149,34.9002603 6.0816071,34.6214862 6.0816071,34.3135266 L6.0816071,23.9608969 C5.54905945,23.6266587 5.03979237,23.2544804 4.56110665,22.8457857 L3.04056894,21.3160762 C-1.37417172,16.0603619 -0.933144641,8.26048744 4.0488969,3.5402089 C9.02944849,-1.18006963 16.8167054,-1.18006963 21.7972569,3.5402089 C26.7792985,8.26048744 27.2203256,16.0603619 22.8055849,21.3160762 L21.2850472,22.8457857 C20.8063242,23.2544804 20.2970944,23.6266325 19.7645467,23.9608969 L19.7649192,34.3135266 Z M7.60240555,24.778249 L7.60240555,32.4731288 L12.3851654,27.6725162 C12.527758,27.5294805 12.7212772,27.4492025 12.9235239,27.4492025 C13.1257706,27.4492025 13.3192936,27.5294768 13.4618824,27.6725162 L18.2446423,32.4731288 L18.2446423,24.778249 C16.5727995,25.5372001 14.7583679,25.9283708 12.9236357,25.9254564 C11.0888289,25.9283746 9.27439732,25.5372001 7.60262904,24.778249 L7.60240555,24.778249 Z M12.9234122,24.4002306 C19.2207127,24.4002306 24.3264206,19.2786555 24.3264206,12.9617847 C24.3264206,6.64491392 19.2207127,1.52483343 12.9234122,1.52483343 C6.62611165,1.52483343 1.52040373,6.64491392 1.52040373,12.9617847 C1.52040373,19.2786555 6.62611165,24.4002306 12.9234122,24.4002306 Z" id="Fill-1" fill="#FFFFFF"></path>
                    <polyline id="Path" stroke="#FFFFFF" stroke-width="1.5" stroke-linecap="round" points="7.38461538 13.4851828 11.6932298 17.8071872 20.2430772 9.23076923"></polyline>
                </g>
            </g>
        </g>
    </g>
</svg>