<?xml version="1.0" encoding="UTF-8"?>
<svg width="62px" height="62px" viewBox="0 0 62 62" version="1.1" xmlns="http://www.w3.org/2000/svg" xmlns:xlink="http://www.w3.org/1999/xlink">
    <!-- Generator: Sketch 51.3 (57544) - http://www.bohemiancoding.com/sketch -->
    <title>Group 13</title>
    <desc>Created with Sketch.</desc>
    <defs></defs>
    <g id="Page-1" stroke="none" stroke-width="1" fill="none" fill-rule="evenodd">
        <g id="V2-b" transform="translate(-1008.000000, -2226.000000)" fill="#FFFFFF">
            <g id="Group-13" transform="translate(1009.000000, 2227.000000)">
                <circle id="Oval-2-Copy-5" stroke="#FFFFFF" stroke-width="0.5" fill-opacity="0.15" cx="30" cy="30" r="30"></circle>
                <g id="Group" transform="translate(9.230769, 7.384615)">
                    <path d="M28.0791692,18.7733077 C28.0791692,15.3171831 26.0509292,12.3722308 23.2274769,11.2689692 C24.1523723,10.5388062 24.7527277,9.40297846 24.7527277,8.13734308 C24.7527277,5.93871231 22.9597615,4.14574615 20.7611308,4.14574615 C18.5625,4.14574615 16.7695338,5.93871231 16.7695338,8.13734308 C16.7695338,9.41107846 17.3698892,10.5387646 18.3028846,11.2689692 C15.4795569,12.3723138 13.4511923,15.3173492 13.4511923,18.7733077 L13.4511923,19.4385877 L28.0706538,19.4385877 L28.0706538,18.7733077 L28.0791692,18.7733077 Z M20.7692308,5.47601538 C22.2376985,5.47601538 23.4302677,6.66862615 23.4302677,8.13705231 C23.4302677,9.60547846 22.2376569,10.7980892 20.7692308,10.7980892 C19.3008046,10.7980892 18.1081938,9.60547846 18.1081938,8.13705231 C18.1081938,6.66862615 19.3008046,5.47601538 20.7692308,5.47601538 Z M14.8225846,18.1078615 C15.1227665,14.7572031 17.6783538,12.1205077 20.7775385,12.1205077 C23.8766815,12.1205077 26.4242769,14.7491031 26.7324923,18.1078615 L14.8225846,18.1078615 Z" id="Fill-1"></path>
                    <path d="M9.93018462,29.2231385 C10.85508,28.4929754 11.4554354,27.3571477 11.4554354,26.0915123 C11.4554354,23.8928815 9.66246923,22.0999154 7.46383846,22.0999154 C5.26520769,22.0999154 3.47224195,23.8928815 3.47224195,26.0915123 C3.47224195,27.3652477 4.07259734,28.4929338 5.00559231,29.2231385 C2.19040657,30.3264831 0.162208025,33.2715185 0.162208025,36.7274769 L0.162208025,37.3927557 L14.7816692,37.3927557 L14.7816692,36.7274769 C14.7816692,33.2713523 12.7534292,30.3264 9.92997692,29.2231385 L9.93018462,29.2231385 Z M7.47193846,23.4306 C8.94040615,23.4306 10.1329754,24.6232108 10.1329754,26.0916369 C10.1329754,27.5600631 8.94036462,28.7526738 7.47193846,28.7526738 C6.00347077,28.7526738 4.81090154,27.5600631 4.81090154,26.0916369 C4.81090154,24.6232108 6.00351231,23.4306 7.47193846,23.4306 Z M1.52529231,36.0624462 C1.82547415,32.7117877 4.38106154,30.0750923 7.48024615,30.0750923 C10.5793892,30.0750923 13.1269846,32.7036877 13.4352,36.0624462 L1.52529231,36.0624462 Z" id="Fill-2"></path>
                    <path d="M36.5247692,29.2231385 C37.4496646,28.4929754 38.05002,27.3571477 38.05002,26.0915123 C38.05002,23.8928815 36.2570538,22.0999154 34.0584231,22.0999154 C31.8597923,22.0999154 30.0668262,23.8928815 30.0668262,26.0915123 C30.0668262,27.3652477 30.6671815,28.4929338 31.6001769,29.2231385 C28.7768492,30.3264831 26.7484846,33.2715185 26.7484846,36.7274769 L26.7484846,37.3927557 L41.3762538,37.3927557 L41.3762538,36.7274769 C41.3762538,33.2713523 39.3480138,30.3264 36.5245615,29.2231385 L36.5247692,29.2231385 Z M34.0665231,23.4306 C35.5349908,23.4306 36.72756,24.6232108 36.72756,26.0916369 C36.72756,27.5600631 35.5349492,28.7526738 34.0665231,28.7526738 C32.5980554,28.7526738 31.4054862,27.5600631 31.4054862,26.0916369 C31.4054862,24.6232108 32.5980969,23.4306 34.0665231,23.4306 Z M28.1115692,36.0624462 C28.4117511,32.7117877 30.9673385,30.0750923 34.0665231,30.0750923 C37.1656662,30.0750923 39.7132615,32.7036877 40.0214769,36.0624462 L28.1115692,36.0624462 Z" id="Fill-3"></path>
                    <polygon id="Fill-4" points="21.4346769 20.7692308 20.1041585 20.7692308 20.1041585 27.8033538 14.9766508 32.9308615 15.9177462 33.8719569 20.7694385 29.0202646 25.6211308 33.8719569 26.5622262 32.9308615 21.4347185 27.8033538"></polygon>
                </g>
            </g>
        </g>
    </g>
</svg>