<?xml version="1.0" encoding="UTF-8"?>
<svg width="62px" height="62px" viewBox="0 0 62 62" version="1.1" xmlns="http://www.w3.org/2000/svg" xmlns:xlink="http://www.w3.org/1999/xlink">
    <!-- Generator: Sketch 51.3 (57544) - http://www.bohemiancoding.com/sketch -->
    <title>Group 7</title>
    <desc>Created with Sketch.</desc>
    <defs></defs>
    <g id="Page-1" stroke="none" stroke-width="1" fill="none" fill-rule="evenodd">
        <g id="V2-b" transform="translate(-1009.000000, -2446.000000)" fill="#FFFFFF">
            <g id="Group-7" transform="translate(1010.000000, 2447.000000)">
                <circle id="Oval-2-Copy-3" stroke="#FFFFFF" stroke-width="0.5" fill-opacity="0.15" cx="30" cy="30" r="30"></circle>
                <path d="M47.0041135,26.3539243 C46.6817827,23.5618287 45.2176901,20.9558899 42.9886859,19.2069106 C40.8111718,17.4964022 38.0993187,16.7400026 35.251222,17.0967298 C33.2842896,17.3832448 31.5924116,18.0952507 30.2199268,19.2112014 C29.6998906,18.8186804 28.9177092,18.2513716 28.4406549,17.9863658 C26.8261588,17.0895784 25.0110565,16.6153846 23.1918833,16.6153846 C20.0387696,16.6153846 17.1135476,18.0020989 15.1679958,20.41737 C13.0234149,23.0561686 12.4117306,26.2708945 13.3486392,29.9727601 C13.9001783,32.1602861 15.1966748,34.351993 16.9157652,36.0155221 C16.9186294,37.0011337 17.3383588,37.9509149 18.0818858,38.645739 C18.6319947,39.1585871 19.3224912,39.4852417 20.0172787,39.5697384 C20.1232883,40.33615 20.4929028,41.0768165 21.0143692,41.5567315 C21.5315449,42.0681493 22.2363443,42.3890461 22.9884531,42.4649978 C23.1059233,43.25147 23.507059,44.0565726 24.041398,44.5479665 C24.5241735,44.992051 25.3937488,45.5249964 26.3378089,45.669675 C26.6859251,46.9188621 27.3134086,47.6366063 28.3491534,47.9832849 C28.5454176,48.0491843 28.9493955,48.1594921 29.4479408,48.1594921 C30.234413,48.1594921 30.96074,47.8844377 31.5652729,47.3472381 C31.6254402,47.2870709 31.735748,47.1839255 31.8790073,47.0492636 C32.9906672,46.0077976 34.076582,44.9319314 34.6094908,44.0336771 C34.9332518,44.1296601 35.2856845,44.1812309 35.6294658,44.1812309 C36.2598172,44.1812309 36.8270894,44.0093219 37.2196104,43.7056069 C37.9874889,43.155498 38.4057917,42.3231834 38.4043614,41.3747958 C39.1980217,41.3647655 40.0690273,41.0238154 40.5804452,40.5209903 C41.1391357,39.9694512 41.4557416,39.1070272 41.4228085,38.3019247 C42.3711594,38.2689731 43.1848803,37.9194157 43.7836921,37.2862404 C44.6317765,36.3923136 44.524322,35.2906657 44.4054251,34.7677689 C46.4110485,32.3596126 47.3579691,29.3040882 47.0041025,26.3544047 L47.0041135,26.3539243 Z M25.1171175,35.6170232 C25.2689695,35.5353651 25.7130687,35.3219119 26.1700624,35.3219119 C26.468038,35.3219119 26.7029711,35.4121627 26.8906316,35.5984002 C27.482292,36.1843394 27.3934677,36.9765328 27.3175527,37.3189205 L23.4066458,41.0090505 C22.8823187,41.0291074 22.3809129,40.8443039 22.0270829,40.4947721 C21.6975897,40.1924983 21.4698227,39.6452574 21.4583437,39.1510029 L25.1171175,35.6170232 Z M21.8651675,32.6644792 C22.0170196,32.5584696 22.3837734,32.3765302 22.7977853,32.3765302 C23.2117972,32.3765302 23.5728153,32.5584659 23.8707909,32.9151968 C24.5040028,33.6773175 24.2103107,34.3592324 24.098569,34.5598021 L20.4124732,38.1197396 C19.95834,38.126902 19.4669828,37.9320718 19.0816133,37.5724914 C18.6432499,37.1642006 18.3939772,36.6083707 18.3853956,36.0324801 L21.8651675,32.6644792 Z M28.3245452,38.3848774 C28.4463136,38.3633865 28.6253851,38.3418992 28.8316722,38.3418992 C29.3989811,38.3418992 29.8244352,38.5052119 30.0951988,38.826105 C30.4017708,39.188546 30.4347186,39.8231956 30.3602266,40.3317528 L26.6268214,44.2210221 C26.0523611,44.1536925 25.3933674,43.7969983 25.0323494,43.4646225 C24.7028562,43.1609185 24.4421193,42.5492048 24.4249559,42.0635687 L28.3245452,38.3848774 Z M27.7314546,45.1882565 L31.5019004,41.2630467 C31.6050458,41.2071777 31.72395,41.1785243 31.857179,41.1785243 C32.3184636,41.1785243 32.7998088,41.5051496 32.9803178,41.7243423 C33.3312983,42.154124 33.4473235,42.7944873 33.4788631,43.0179415 C33.4029371,43.2972941 32.9430938,44.0379166 30.8758582,45.9747764 C30.7111116,46.1280624 30.585045,46.2469666 30.5563954,46.2784805 C30.2469592,46.5521009 29.8744805,46.6910621 29.4490263,46.6910621 C29.1481865,46.6910621 28.9046386,46.6208645 28.8143841,46.5893506 C28.3430509,46.4317664 27.9748814,46.128066 27.7313666,45.1882968 L27.7314546,45.1882565 Z M31.1524346,32.8980921 C30.8802444,32.6187395 30.3974653,32.6115771 30.1152594,32.8851975 C29.8258802,33.1674144 29.8201481,33.6330155 30.1023649,33.9223727 L36.8496329,40.8372405 C37.0129455,41.375907 36.9642389,42.0792762 36.3396453,42.5262579 C36.0602927,42.7425754 35.3597548,42.7597681 34.8913188,42.5735343 C34.801068,42.0993405 34.5919093,41.377341 34.1148586,40.7942623 C33.6736346,40.2555958 32.8054896,39.7112448 31.8571387,39.7083842 C31.8342175,39.1282028 31.6866636,38.4377062 31.215345,37.878979 C30.6595151,37.2214156 29.8357822,36.8733067 28.8358347,36.8733067 C28.8444274,36.2215011 28.6868469,35.3103742 27.9218472,34.5554049 C27.3459567,33.9852355 26.5938479,33.7574537 25.7314203,33.8835387 C25.7271258,33.3319996 25.5638095,32.6558058 24.9979419,31.9782185 C24.2601763,31.0928733 23.3920276,30.9066432 22.7946461,30.9066432 C22.1356524,30.9066432 21.4422952,31.1372891 20.9380288,31.5255156 C20.9151076,31.5427083 20.8936204,31.5613313 20.8778616,31.5785204 L17.6688935,34.6857917 C16.2721305,33.2446166 15.222048,31.4152114 14.7693818,29.6159889 C13.941358,26.3411177 14.4441868,23.6348391 16.3065343,21.342719 C17.9740572,19.2726596 20.484057,18.085048 23.1913295,18.085048 C24.7614134,18.085048 26.3301037,18.494769 27.7267933,19.269799 C28.0992537,19.4775238 28.7166958,19.9230349 29.1278471,20.2296289 L23.6454627,25.5990576 C23.5408833,25.6864442 22.6283482,26.4844028 22.6197298,27.6232747 C22.6154316,28.312341 22.9305999,28.9369345 23.559499,29.4784617 C24.37322,30.1804372 25.3831831,30.5514672 26.4790695,30.5514672 C27.7970569,30.5514672 29.1020984,30.0113704 30.1538001,29.0300863 C30.9187814,28.3180988 32.7266957,26.5488755 33.6965742,25.5961971 L42.9508677,35.0052582 C43.0053065,35.2029527 43.1342373,35.8375729 42.7159272,36.2774032 C42.3649468,36.6498635 41.8778548,36.837524 41.2704613,36.837524 C41.0799293,36.837524 40.9080203,36.817467 40.7762069,36.7974101 L34.2321124,30.1961043 C33.957058,29.9181856 33.4757128,29.9153214 33.1949373,30.1918061 C33.0559761,30.3293333 32.9786198,30.5141369 32.9771859,30.7089817 C32.9757556,30.9052459 33.0516779,31.0900604 33.1892051,31.2290179 L39.83489,37.9333774 C40.0956196,38.3574013 39.9007894,39.1281404 39.5469411,39.4762493 C39.3306236,39.6882685 38.8292324,39.9088915 38.3636203,39.9088915 C38.1659259,39.9088915 37.9983151,39.8673473 37.8922871,39.7985837 L31.1524346,32.8980921 Z M35.4487844,18.5508875 C35.834154,18.5021808 36.2252447,18.4778257 36.609184,18.4778257 C38.6219588,18.4778257 40.5142231,19.128201 42.0831334,20.3602247 C44.007084,21.8701634 45.2706106,24.1178346 45.5470953,26.5258443 C45.8364745,28.941152 45.1058713,31.4625208 43.5357507,33.5052582 L34.2268094,24.0415529 C34.0878482,23.9025917 33.9044786,23.8252354 33.7082035,23.8238015 L33.7053392,23.8238015 C33.510509,23.8238015 33.3285881,23.8982935 33.1881636,24.0372547 C33.1638085,24.0616062 30.1983956,26.9826106 29.1525653,27.9554964 C28.3746748,28.6818234 27.4248936,29.0814958 26.4779363,29.0814958 C25.7373065,29.0814958 25.0582521,28.8350911 24.516725,28.3666477 C24.23021,28.1188127 24.0855131,27.8738236 24.0855131,27.6360299 C24.0869433,27.2635695 24.4178705,26.8724789 24.6284705,26.6862487 L30.7497146,20.695197 C31.9774475,19.5477066 33.5618709,18.8256705 35.4483774,18.5506161 L35.4487844,18.5508875 Z" id="Fill-1"></path>
            </g>
        </g>
    </g>
</svg>