<?xml version="1.0" encoding="UTF-8"?>
<svg width="76px" height="75px" viewBox="0 0 76 75" version="1.1" xmlns="http://www.w3.org/2000/svg" xmlns:xlink="http://www.w3.org/1999/xlink">
    <!-- Generator: Sketch 51.3 (57544) - http://www.bohemiancoding.com/sketch -->
    <title>QuarrySolutionsLogo_PMS144</title>
    <desc>Created with Sketch.</desc>
    <defs>
        <polygon id="path-1" points="42.1342871 15.2971234 32.9781683 15.2971234 32.9781683 6.13124026 27.0274059 0.174564935 0.15670297 27.0737597 53.8981089 27.0737597"></polygon>
        <polygon id="path-3" points="0.0112871287 0.0220324675 75.8765941 0.0220324675 75.8765941 32.1643896 0.0112871287 32.1643896"></polygon>
    </defs>
    <g id="Page-1" stroke="none" stroke-width="1" fill="none" fill-rule="evenodd">
        <g id="quarry-solutions-quarries" transform="translate(-73.000000, -23.000000)">
            <g id="QuarrySolutionsLogo_PMS144" transform="translate(73.000000, 22.000000)">
                <g id="Group-13" transform="translate(10.910891, 0.000000)">
                    <mask id="mask-2" fill="white">
                        <use xlink:href="#path-1"></use>
                    </mask>
                    <g id="Clip-2"></g>
                    <polygon id="Fill-1" fill="#F58C1F" mask="url(#mask-2)" points="0.15670297 8.91354545 53.8981089 8.91354545 53.8981089 7.55167532 0.15670297 7.55167532"></polygon>
                    <polygon id="Fill-3" fill="#F58C1F" mask="url(#mask-2)" points="0.15670297 11.637474 53.8981089 11.637474 53.8981089 9.82158442 0.15670297 9.82158442"></polygon>
                    <polygon id="Fill-4" fill="#F58C1F" mask="url(#mask-2)" points="0.15670297 14.8154221 53.8981089 14.8154221 53.8981089 12.545513 0.15670297 12.545513"></polygon>
                    <polygon id="Fill-5" fill="#F58C1F" mask="url(#mask-2)" points="0.15670297 18.4473896 53.8981089 18.4473896 53.8981089 15.723461 0.15670297 15.723461"></polygon>
                    <polygon id="Fill-6" fill="#F58C1F" mask="url(#mask-2)" points="0.15670297 22.5335649 53.8981089 22.5335649 53.8981089 19.3556169 0.15670297 19.3556169"></polygon>
                    <polygon id="Fill-7" fill="#F58C1F" mask="url(#mask-2)" points="0.15670297 27.0737597 53.8981089 27.0737597 53.8981089 23.4416039 0.15670297 23.4416039"></polygon>
                    <polygon id="Fill-8" fill="#F58C1F" mask="url(#mask-2)" points="0.15670297 6.64363636 53.8981089 6.64363636 53.8981089 5.7355974 0.15670297 5.7355974"></polygon>
                    <polygon id="Fill-9" fill="#F58C1F" mask="url(#mask-2)" points="0.15670297 4.87353896 53.8981089 4.87353896 53.8981089 4.37353896 0.15670297 4.37353896"></polygon>
                    <polygon id="Fill-10" fill="#F58C1F" mask="url(#mask-2)" points="0.15670297 3.73877273 53.8981089 3.73877273 53.8981089 3.23877273 0.15670297 3.23877273"></polygon>
                    <polygon id="Fill-11" fill="#F58C1F" mask="url(#mask-2)" points="0.15670297 2.51818182 53.8981089 2.51818182 53.8981089 2.21718182 0.15670297 2.21718182"></polygon>
                    <polygon id="Fill-12" fill="#F58C1F" mask="url(#mask-2)" points="0.15670297 1.40296104 53.8981089 1.40296104 53.8981089 1.25246104 0.15670297 1.25246104"></polygon>
                </g>
                <g id="Group-17" transform="translate(0.000000, 30.506494)">
                    <mask id="mask-4" fill="white">
                        <use xlink:href="#path-3"></use>
                    </mask>
                    <g id="Clip-15"></g>
                    <path d="M52.5816535,11.7691039 L75.8765941,11.7691039 L75.8765941,21.1641623 C75.8765941,24.2515325 74.7939703,26.8538117 72.6270297,28.9725065 C70.4604653,31.0925195 67.8574653,32.1508312 64.8152079,32.1508312 L43.8708119,32.1508312 L43.8708119,23.3630779 L64.8172772,23.3630779 C66.3380297,23.3630779 67.0974653,22.5915649 67.0974653,21.0487273 L67.0974653,20.4188247 L43.8708119,20.4188247 L43.8708119,11.0224481 C43.8708119,8.02791558 44.9532475,5.44823377 47.1203762,3.28302597 C49.2867525,1.11913636 51.8669901,0.0372857143 54.8629703,0.0372857143 L75.8765941,0.0372857143 L75.8765941,8.82372078 L55.1385644,8.82372078 C54.447604,8.82372078 53.8595446,9.06984416 53.3764554,9.55983117 C52.8920495,10.0520779 52.6269901,10.6465779 52.5816535,11.3478506 L52.5816535,11.7691039" id="Fill-14" fill="#F58C1F" mask="url(#mask-4)"></path>
                    <path d="M10.6990693,23.6011039 C10.6990693,23.6011039 8.76520792,23.638013 8.76520792,21.7776818 C8.76520792,19.9179156 8.76520792,8.7966039 8.76520792,8.7966039 L20.8061287,8.7966039 C22.4672178,8.7966039 23.2981386,9.62762338 23.2981386,11.289474 L23.2981386,17.4879416 L20.3318812,14.5186429 L14.5122376,20.3438766 L17.7663168,23.6011039 L10.6990693,23.6011039 Z M32.0853564,23.3894416 L32.1088713,20.4804026 L32.1088713,10.7379091 C32.1088713,7.72341558 30.952505,5.14806494 28.6429703,3.01430519 C26.4214752,1.01970779 23.7654257,0.0220324675 20.6669208,0.0220324675 L0,0.0220324675 L0,21.3340195 C0,24.295974 1.1330396,26.8415714 3.3979901,28.9708117 C5.66369307,31.0981688 8.27609901,32.1643896 11.235396,32.1643896 L40.1735248,32.1643896 L40.1735248,23.3894416 L32.0853564,23.3894416 Z" id="Fill-16" fill="#F58C1F" mask="url(#mask-4)"></path>
                </g>
                <path d="M5.81625743,68.8655844 C5.81625743,68.1419026 5.78785149,67.6718766 5.44980198,67.3801818 C5.07431683,67.0608052 4.59517822,67.0515779 3.91926733,67.0515779 L3.49675248,67.0515779 C2.82968317,67.0515779 2.35092079,67.0608052 1.96584158,67.389974 C1.62760396,67.6811039 1.59938614,68.1419026 1.59938614,68.8751883 L1.59938614,70.8117857 C1.59938614,71.5448831 1.62760396,71.9962662 1.96584158,72.2873961 C2.35092079,72.6167532 2.82968317,72.6257922 3.49675248,72.6257922 L4.0880099,72.6257922 C4.68942574,72.6257922 5.07431683,72.6073377 5.2530297,72.5037662 L3.96610891,71.2160909 L4.44487129,70.7270455 L5.75060396,72.0149091 C5.78785149,71.7896883 5.81625743,71.4413117 5.81625743,70.9712857 L5.81625743,68.8655844 Z M3.28041584,66.3367468 L4.14463366,66.3367468 C5.98537624,66.3367468 6.60485149,66.9009286 6.60485149,68.6776494 L6.60485149,70.9997208 C6.60485149,71.7047597 6.5580099,72.1842013 6.25739604,72.5131818 L6.67088119,72.9269026 L6.17311881,73.4344026 L5.74119802,72.9926234 C5.44058416,73.2933571 4.93360396,73.3402468 4.14463366,73.3402468 L3.28041584,73.3402468 C1.45848515,73.3402468 0.819821782,72.7576104 0.819821782,70.9997208 L0.819821782,68.6776494 C0.819821782,66.9197597 1.45848515,66.3367468 3.28041584,66.3367468 Z" id="Fill-18" fill="#FFFFFF"></path>
                <path d="M11.8827129,73.2558831 L11.1972079,73.2558831 L11.1972079,72.5975455 C10.9624356,73.0958182 10.4458614,73.3217922 9.61023762,73.3217922 C8.32369307,73.3217922 7.9009901,72.8517662 7.9009901,71.5921494 L7.9009901,68.4238052 L8.61471287,68.4238052 L8.61471287,71.4413117 C8.61471287,72.3817403 8.7930495,72.6730584 9.71351485,72.6730584 C10.7182574,72.6730584 11.1597723,72.2312792 11.1597723,71.2347338 L11.1597723,68.4238052 L11.8827129,68.4238052 L11.8827129,73.2558831" id="Fill-19" fill="#FFFFFF"></path>
                <path d="M16.5128812,71.5166364 C16.5128812,71.0371948 16.0241485,70.8492597 15.0474356,70.8492597 C14.1459703,70.8492597 13.8739505,71.0091364 13.8739505,71.7047597 C13.8739505,72.4757078 14.1365644,72.6542273 15.122495,72.6542273 C16.0523663,72.6542273 16.5128812,72.4192143 16.5128812,72.0247013 L16.5128812,71.5166364 Z M15.0286238,73.3217922 C13.6201782,73.3217922 13.1222277,73.0493052 13.1222277,71.7896883 C13.1222277,71.1780519 13.2070693,70.783539 13.5073069,70.5295065 C13.770297,70.313513 14.2494356,70.2568312 14.9911881,70.2568312 C15.7799703,70.2568312 16.2591089,70.3602143 16.5128812,70.7270455 L16.5128812,69.8901883 C16.5128812,69.0346883 16.2591089,68.950513 15.1320891,68.950513 C14.3243069,68.950513 14.0238812,69.0538961 14.0146634,69.6180779 L13.3005644,69.6180779 C13.3005644,69.580039 13.3005644,69.5425649 13.3005644,69.5050909 C13.3005644,68.6305714 13.8547624,68.3580844 15.0850594,68.3580844 C15.9865248,68.3580844 16.5595347,68.4143896 16.8415248,68.6305714 C17.2074158,68.913039 17.2264158,69.2981364 17.2264158,69.8715455 L17.2264158,73.2558831 L16.5783465,73.2558831 L16.5501287,72.7481948 C16.3153564,73.1711429 15.8268119,73.3217922 15.0286238,73.3217922 Z" id="Fill-20" fill="#FFFFFF"></path>
                <path d="M18.6534851,68.4238052 L19.3485842,68.4238052 L19.3485842,69.0819545 C19.5549505,68.5744545 19.9780297,68.3580844 20.6725644,68.3580844 C21.7625248,68.3580844 22.100198,68.8469416 22.100198,70.0877273 L22.100198,70.1252013 L21.3768812,70.1252013 L21.3768812,69.9841558 C21.3768812,69.2414545 21.2083267,69.0064416 20.5036337,69.0064416 C19.6772277,69.0064416 19.376802,69.4672403 19.376802,70.4451429 L19.376802,73.2558831 L18.6534851,73.2558831 L18.6534851,68.4238052" id="Fill-21" fill="#FFFFFF"></path>
                <path d="M23.0486931,68.4238052 L23.743604,68.4238052 L23.743604,69.0819545 C23.9501584,68.5744545 24.3726733,68.3580844 25.0677723,68.3580844 C26.1569802,68.3580844 26.4952178,68.8469416 26.4952178,70.0877273 L26.4952178,70.1252013 L25.7720891,70.1252013 L25.7720891,69.9841558 C25.7720891,69.2414545 25.6027822,69.0064416 24.8986535,69.0064416 C24.0722475,69.0064416 23.7718218,69.4672403 23.7718218,70.4451429 L23.7718218,73.2558831 L23.0486931,73.2558831 L23.0486931,68.4238052" id="Fill-22" fill="#FFFFFF"></path>
                <path d="M27.4666634,68.4238052 L28.9033267,72.5790909 L30.3311485,68.4238052 L31.0354653,68.4238052 L29.2135347,73.6788312 C28.8658911,74.6847922 28.5558713,75.1363636 27.7763069,75.1363636 C27.664,75.1363636 27.5417228,75.1265714 27.4008218,75.1079286 L27.4008218,74.4778377 C27.4756931,74.4872532 27.5509406,74.4872532 27.6167822,74.4872532 C28.0959208,74.4872532 28.2742574,74.2902792 28.4715941,73.7543442 L28.6499307,73.2558831 L28.4337822,73.2558831 L26.7529406,68.4238052 L27.4666634,68.4238052" id="Fill-23" fill="#FFFFFF"></path>
                <path d="M33.2699406,71.1409545 C33.2699406,71.1595974 33.2699406,71.1878442 33.2699406,71.2062987 C33.2699406,71.7047597 33.495495,71.8738636 34.1623762,71.8738636 L34.6225149,71.8738636 C35.167495,71.8738636 35.3734851,71.7516494 35.3734851,71.3661753 L35.3734851,71.0654416 C35.3734851,70.6709286 35.1392772,70.6142468 34.6413267,70.5577532 L33.1576337,70.3982532 C32.0494257,70.2758506 31.5612574,69.7306883 31.5612574,68.6021364 L31.5612574,68.1793766 C31.5612574,67.5400584 31.7674356,67.0323701 32.152703,66.7129935 C32.5471881,66.384013 33.0635743,66.3367468 33.8055149,66.3367468 L34.9043168,66.3367468 C36.2849208,66.3367468 37.0078614,66.9197597 37.0078614,67.9443636 L37.0078614,68.4143896 L35.2517723,68.4143896 C35.2517723,68.3863312 35.2517723,68.3671234 35.2517723,68.3394416 C35.2517723,67.9255325 35.0826535,67.7942792 34.584703,67.7942792 L34.1623762,67.7942792 C33.6271782,67.7942792 33.4018119,67.8880584 33.4018119,68.254513 L33.4018119,68.5367922 C33.4018119,68.913039 33.6552079,68.9407208 34.1435644,68.9972143 L35.4961386,69.1480519 C36.6605941,69.2794935 37.2332277,69.8246558 37.2332277,70.8117857 L37.2332277,71.4697468 C37.2332277,72.5883182 36.4912871,73.3402468 35.289396,73.3402468 L33.7959208,73.3402468 C32.2275743,73.3402468 31.5138515,72.8325584 31.5138515,71.6106039 L31.5138515,71.1409545 L33.2699406,71.1409545" id="Fill-24" fill="#FFFFFF"></path>
                <path d="M39.6279802,71.2253182 C39.6279802,71.9397727 39.665604,72.1655584 40.2102079,72.1655584 L40.3979505,72.1655584 C40.9425545,72.1655584 40.9709604,71.9305455 40.9709604,71.2253182 L40.9709604,70.4541818 C40.9709604,69.7401039 40.9425545,69.5141299 40.3979505,69.5141299 L40.2102079,69.5141299 C39.665604,69.5141299 39.6279802,69.7491429 39.6279802,70.4541818 L39.6279802,71.2253182 Z M39.9754356,68.3580844 L40.623505,68.3580844 C42.0509505,68.3580844 42.539495,68.8938312 42.539495,70.3415714 L42.539495,71.3379286 C42.539495,72.7856688 42.0509505,73.3217922 40.623505,73.3217922 L39.9754356,73.3217922 C38.5479901,73.3217922 38.0596337,72.7856688 38.0596337,71.3379286 L38.0596337,70.3415714 C38.0596337,68.8938312 38.5479901,68.3580844 39.9754356,68.3580844 Z" id="Fill-25" fill="#FFFFFF"></path>
                <polygon id="Fill-26" fill="#FFFFFF" points="43.6659505 73.2558831 45.2248911 73.2558831 45.2248911 66.421487 43.6659505 66.421487"></polygon>
                <path d="M50.8692079,73.2558831 L49.3851386,73.2558831 L49.4041386,72.5698636 C49.1223366,73.115026 48.7092277,73.3217922 48.0327525,73.3217922 C46.8118614,73.3217922 46.5018416,72.8608052 46.5018416,71.5731299 L46.5018416,68.4238052 L48.0327525,68.4238052 L48.0327525,71.2253182 C48.0327525,71.9491883 48.1456238,72.0621753 48.7184455,72.0621753 C49.2818614,72.0621753 49.3381089,71.7896883 49.3381089,71.1409545 L49.3381089,68.4238052 L50.8692079,68.4238052 L50.8692079,73.2558831" id="Fill-27" fill="#FFFFFF"></path>
                <path d="M52.4749901,72.8325584 C52.2400297,72.5225974 52.2210297,72.1747857 52.2210297,71.7516494 C52.2210297,71.6672857 52.2210297,71.5827338 52.2210297,71.4885779 L52.2210297,69.5425649 L51.6670198,69.5425649 L51.6670198,68.4238052 L52.2210297,68.4238052 L52.2210297,67.4933571 L53.7519406,67.4933571 L53.7519406,68.4238052 L55.7992376,68.4238052 L55.7992376,69.5425649 L53.7519406,69.5425649 L53.7519406,71.5166364 C53.7519406,72.0337403 53.7989703,72.1938052 54.249703,72.1938052 C54.6443762,72.1938052 54.7286535,72.0621753 54.7286535,71.6763247 L54.7286535,71.2722078 L56.0059802,71.2722078 L56.0059802,71.8173701 C56.0059802,72.8423506 55.5460297,73.3217922 54.5222871,73.3217922 L53.705099,73.3217922 C53.1322772,73.3217922 52.728198,73.1619156 52.4749901,72.8325584" id="Fill-28" fill="#FFFFFF"></path>
                <path d="M56.9636931,73.2558831 L58.5226337,73.2558831 L58.5226337,68.4238052 L56.9636931,68.4238052 L56.9636931,73.2558831 Z M56.9636931,67.6244221 L58.5226337,67.6244221 L58.5226337,66.421487 L56.9636931,66.421487 L56.9636931,67.6244221 Z" id="Fill-29" fill="#FFFFFF"></path>
                <path d="M61.1705941,71.2253182 C61.1705941,71.9397727 61.2084059,72.1655584 61.7530099,72.1655584 L61.9409406,72.1655584 C62.4853564,72.1655584 62.5137624,71.9305455 62.5137624,71.2253182 L62.5137624,70.4541818 C62.5137624,69.7401039 62.4853564,69.5141299 61.9409406,69.5141299 L61.7530099,69.5141299 C61.2084059,69.5141299 61.1705941,69.7491429 61.1705941,70.4541818 L61.1705941,71.2253182 Z M61.5182376,68.3580844 L62.166495,68.3580844 C63.5935644,68.3580844 64.0821089,68.8938312 64.0821089,70.3415714 L64.0821089,71.3379286 C64.0821089,72.7856688 63.5935644,73.3217922 62.166495,73.3217922 L61.5182376,73.3217922 C60.0907921,73.3217922 59.6028119,72.7856688 59.6028119,71.3379286 L59.6028119,70.3415714 C59.6028119,68.8938312 60.0907921,68.3580844 61.5182376,68.3580844 Z" id="Fill-30" fill="#FFFFFF"></path>
                <path d="M65.1901287,68.4238052 L66.6738218,68.4238052 L66.655198,69.110013 C66.9368119,68.5646623 67.3501089,68.3580844 68.0262079,68.3580844 C69.2469109,68.3580844 69.5569307,68.8281104 69.5569307,70.115974 L69.5569307,73.2558831 L68.0262079,73.2558831 L68.0262079,70.4541818 C68.0262079,69.7306883 67.9137129,69.6180779 67.340703,69.6180779 C66.7774752,69.6180779 66.7208515,69.8999805 66.7208515,70.548526 L66.7208515,73.2558831 L65.1901287,73.2558831 L65.1901287,68.4238052" id="Fill-31" fill="#FFFFFF"></path>
                <path d="M72.1206139,71.8738636 C72.1770495,72.2593377 72.3461683,72.3440779 72.7594653,72.3440779 L72.9660198,72.3440779 C73.4263465,72.3440779 73.594901,72.2405065 73.594901,71.8738636 C73.594901,71.5166364 73.4449703,71.4322727 72.9472079,71.3853831 L71.960901,71.291039 C71.0968713,71.2062987 70.5900792,70.6986104 70.5900792,70.0408377 L70.5900792,69.6551753 C70.5900792,68.8188831 71.2003366,68.3580844 72.3930099,68.3580844 L73.341505,68.3580844 C74.4403069,68.3580844 74.985099,68.7812208 74.985099,69.6180779 C74.985099,69.6459481 74.985099,69.6834221 74.985099,69.721461 L73.4637822,69.721461 C73.4543762,69.4484091 73.2664455,69.3263831 72.8813663,69.3263831 L72.6842178,69.3263831 C72.261703,69.3263831 72.101802,69.4582013 72.101802,69.7866169 C72.101802,70.0690844 72.2238911,70.1632403 72.5527228,70.1909221 L73.6419307,70.2944935 C74.6374554,70.388461 75.126,70.7552922 75.126,71.4697468 L75.126,71.8830909 C75.126,72.7674026 74.4875248,73.3217922 73.3979406,73.3217922 L72.3738218,73.3217922 C71.1346832,73.3217922 70.5334554,72.880013 70.5334554,71.9397727 C70.5334554,71.9207532 70.5334554,71.8928831 70.5334554,71.8738636 L72.1206139,71.8738636" id="Fill-32" fill="#FFFFFF"></path>
            </g>
        </g>
    </g>
</svg>