<?xml version="1.0" encoding="UTF-8"?>
<svg width="75px" height="63px" viewBox="0 0 75 63" version="1.1" xmlns="http://www.w3.org/2000/svg" xmlns:xlink="http://www.w3.org/1999/xlink">
    <!-- Generator: Sketch 51.3 (57544) - http://www.bohemiancoding.com/sketch -->
    <title>Group Copy</title>
    <desc>Created with Sketch.</desc>
    <defs>
        <polygon id="path-1" points="0.00953389831 0.0703919492 22.8853284 0.0703919492 22.8853284 23.0100636 0.00953389831 23.0100636"></polygon>
        <polygon id="path-3" points="0.0777012712 0.11059322 12.2205508 0.11059322 12.2205508 6.98199153 0.0777012712 6.98199153"></polygon>
    </defs>
    <g id="Page-1" stroke="none" stroke-width="1" fill="none" fill-rule="evenodd">
        <g id="urban-home" transform="translate(-75.000000, -23.000000)">
            <g id="Group-Copy" transform="translate(75.000000, 23.000000)">
                <g id="Group-3" transform="translate(0.000000, 29.872881)">
                    <mask id="mask-2" fill="white">
                        <use xlink:href="#path-1"></use>
                    </mask>
                    <g id="Clip-2"></g>
                    <path d="M6.22865466,8.45132415 L22.8853284,8.45132415 L22.8853284,15.162553 C22.8853284,17.3658369 22.1105403,19.2268538 20.560964,20.7389301 C19.0129767,22.2513242 17.1518008,23.0100636 14.9758475,23.0100636 L0,23.0100636 L0,16.7307203 L14.9771186,16.7307203 C16.0649364,16.7307203 16.6070975,16.1833157 16.6070975,15.0799258 L16.6070975,14.6300847 L0,14.6300847 L0,7.91853814 C0,5.77722458 0.773993644,3.93448093 2.32341102,2.38855932 C3.87298729,0.843432203 5.71716102,0.0703919492 7.85974576,0.0703919492 L22.8853284,0.0703919492 L22.8853284,6.346875 L8.05805085,6.346875 C7.56324153,6.346875 7.14263771,6.52070975 6.7970339,6.87378178 C6.45063559,7.22319915 6.26027542,7.64825212 6.22865466,8.14862288 L6.22865466,8.45132415" id="Fill-1" fill="#E8913E" mask="url(#mask-2)"></path>
                </g>
                <path d="M48.8814089,37.6347458 L48.8814089,44.5684322 L32.2525424,44.5684322 L32.2525424,44.9106992 C32.2525424,46.062553 32.8283898,46.6376059 33.9792903,46.6376059 L48.8814089,46.6376059 L48.8814089,52.8829449 L34.0110699,52.8829449 C31.9021716,52.8829449 30.0427436,52.1242055 28.4284958,50.6100636 C26.8142479,49.0944915 26.0081568,47.2830508 26.0081568,45.174947 L26.0081568,30.0068326 L40.7294492,30.0068326 C42.9362288,30.0068326 44.8301377,30.7172669 46.4095869,32.1382945 C48.0579979,33.6557733 48.8814089,35.4891419 48.8814089,37.6347458 M42.6047669,38.0272246 C42.6047669,36.8445445 42.012553,36.254714 40.8289195,36.254714 L32.2525424,36.254714 L32.2525424,38.3242055 L42.6047669,38.3242055 L42.6047669,38.0272246" id="Fill-4" fill="#E8913E"></path>
                <g id="Group-8" transform="translate(10.487288, 0.000000)" fill="#E8913E">
                    <path d="M64.417214,37.6347458 L64.417214,44.5684322 L47.7899364,44.5684322 L47.7899364,44.9106992 C47.7899364,46.062553 48.3653072,46.6376059 49.515572,46.6376059 L64.417214,46.6376059 L64.417214,52.8829449 L49.550053,52.8829449 C47.4398835,52.8829449 45.5790254,52.1242055 43.9662076,50.6100636 C42.3518008,49.0944915 41.5457097,47.2830508 41.5457097,45.174947 L41.5457097,30.0068326 L56.2677966,30.0068326 C58.4740996,30.0068326 60.3678496,30.7172669 61.9493644,32.1382945 C63.5949153,33.6557733 64.417214,35.4891419 64.417214,37.6347458 M58.1416843,38.0272246 C58.1416843,36.8445445 57.5496292,36.254714 56.3671081,36.254714 L47.7899364,36.254714 L47.7899364,38.3242055 L58.1416843,38.3242055 L58.1416843,38.0272246" id="Fill-5"></path>
                    <polyline id="Fill-7" points="42.0929555 15.2604343 32.9235699 15.2604343 32.9235699 6.09152542 26.9658369 0.132521186 0.0613347458 27.0386123 53.8716102 27.0386123 42.0929555 15.2604343"></polyline>
                </g>
                <path d="M21.8048199,55.8838983 L21.8048199,59.2101165 C21.8048199,59.6396186 21.7544492,60.4058263 22.0743114,60.7342691 C22.4027542,61.0542903 22.9415784,61.0037606 23.2363347,61.0037606 L24.9036547,61.0037606 C25.0889301,61.0037606 25.6530191,61.0542903 25.956197,60.7426907 C26.2256886,60.4563559 26.1751589,59.8752648 26.1751589,59.2606462 L26.1751589,55.8838983 L28.229714,55.8838983 L28.229714,59.9005297 C28.229714,60.6668962 28.3056674,61.4162606 27.6993114,62.0394597 C27.0510064,62.6961864 26.2172669,62.6625 25.3329979,62.6625 L22.3016949,62.6625 C21.5774364,62.6625 20.9965042,62.7214513 20.3227754,62.0310381 C19.6828919,61.3657309 19.7502648,60.2121292 19.7502648,59.6815678 L19.7502648,55.8838983 L21.8048199,55.8838983" id="Fill-9" fill="#FFFFFF"></path>
                <g id="Group-13" transform="translate(28.919492, 55.773305)">
                    <mask id="mask-4" fill="white">
                        <use xlink:href="#path-3"></use>
                    </mask>
                    <g id="Clip-11"></g>
                    <path d="M3.740625,4.3125 C3.740625,4.02632415 3.740625,3.67261653 3.36165254,3.50418432 C3.09216102,3.37786017 2.46912076,3.36101695 2.18278602,3.57997881 C1.77854873,3.86631356 1.82907839,4.52319915 1.82907839,5.04518008 L1.82907839,6.88919492 L0.0777012712,6.88919492 L0.0777012712,2.14004237 L1.77012712,2.14004237 L1.77012712,2.94009534 C2.06488347,2.41795551 2.4185911,2.13162076 3.05005297,2.07266949 C3.51324153,2.02213983 4.52367585,1.996875 4.99528602,2.62007415 C5.29846398,2.99904661 5.25619703,3.79036017 5.25619703,4.3125 L3.740625,4.3125" id="Fill-10" fill="#FFFFFF" mask="url(#mask-4)"></path>
                    <path d="M8.0440678,5.58400424 C8.0440678,5.58400424 8.58289195,5.60942797 8.92817797,5.60942797 C9.30715042,5.60942797 9.88808263,5.58400424 9.88808263,5.58400424 C10.3430085,5.58400424 10.5112818,5.2220339 10.5112818,4.91885593 C10.5112818,4.91885593 10.5282839,4.65778602 10.5282839,4.4809322 C10.5282839,4.3125 10.5112818,4.05158898 10.5112818,4.05158898 C10.5112818,3.74841102 10.3430085,3.38628178 9.88808263,3.38628178 C9.88808263,3.38628178 9.28188559,3.36101695 8.89449153,3.36101695 C8.55762712,3.36101695 8.0440678,3.38628178 8.0440678,3.38628178 C7.59772246,3.38628178 7.42086864,3.74841102 7.42086864,4.05158898 C7.42086864,4.05158898 7.41244703,4.29565678 7.41244703,4.44724576 C7.41244703,4.63252119 7.42086864,4.91885593 7.42086864,4.91885593 C7.42086864,5.2220339 7.59772246,5.58400424 8.0440678,5.58400424 Z M7.44613347,6.08087924 L7.44613347,6.88919492 L5.69475636,6.88919492 L5.69475636,0.11059322 L7.44613347,0.11059322 L7.44613347,2.98204449 C7.61456568,2.49375 8.0440678,2.18215042 8.59131356,2.10635593 C8.90291314,2.05582627 10.1238877,2.04756356 10.1238877,2.04756356 C10.6290254,2.03056144 10.8986758,2.08951271 11.1092161,2.15688559 C11.5385593,2.28320975 11.8922669,2.55254237 12.0691208,3.02415254 C12.1617585,3.24311441 12.2205508,3.64735169 12.2205508,4.08527542 L12.2205508,4.94412076 C12.2205508,5.40715042 12.1617585,5.79470339 12.0691208,6.00508475 C11.8922669,6.47669492 11.5385593,6.75460805 11.1092161,6.8809322 C10.8986758,6.93988347 10.6290254,6.99025424 10.1238877,6.99025424 C9.49226695,6.99883475 8.90291314,6.96514831 8.59131356,6.91445975 C8.0440678,6.83882415 7.61456568,6.56933263 7.44613347,6.08087924 Z" id="Fill-12" fill="#FFFFFF" mask="url(#mask-4)"></path>
                </g>
                <path d="M45.8985699,61.5932733 C46.0585805,61.5510064 46.2017479,61.5006356 46.2775424,61.2646716 C46.3196504,61.0963983 46.2775424,60.8941208 46.1006886,60.7595339 C46.0080508,60.692161 45.7722458,60.6584746 45.4606462,60.6584746 L44.3323093,60.6584746 C44.0207097,60.6584746 43.7850636,60.692161 43.6924258,60.7595339 C43.5239936,60.8941208 43.4736229,61.0963983 43.5239936,61.2646716 C43.5913665,61.5006356 43.7345339,61.5510064 43.8943856,61.5932733 C43.9449153,61.601536 44.0965042,61.6183792 44.3072034,61.6183792 L45.4860699,61.6183792 C45.6966102,61.6183792 45.8480403,61.601536 45.8985699,61.5932733 Z M46.3364936,62.6625 L46.3364936,62.1152542 C45.8143538,62.6121292 45.5364407,62.6625 44.9807733,62.6625 L43.6333157,62.6625 C43.1364407,62.6625 42.3535487,62.7131886 41.9912606,62.1657839 C41.7303496,61.7783898 41.7135064,60.7342691 41.8905191,60.346875 C42.109322,59.8585805 42.5470869,59.7322564 43.0102754,59.6733051 C43.7345339,59.5722458 45.5113347,59.4962924 46.2522775,59.9679025 C46.2522775,59.5469809 46.285964,59.1595869 45.9996292,58.9995763 C45.8229343,58.8900953 45.6123941,58.9153602 45.3850106,58.9153602 C45.3176377,58.9153602 44.1470339,58.9153602 44.1470339,58.9153602 C44.0207097,58.9153602 43.8777013,58.940625 43.8440148,58.9660487 C43.6840042,59.0753708 43.6840042,59.2101165 43.667161,59.285911 L41.9493114,59.285911 C42.0251059,57.9807203 42.7240996,57.8208686 43.7850636,57.8208686 L45.789089,57.8208686 C46.285964,57.8208686 47.0858581,57.7533369 47.6164195,58.3175847 C48.0794492,58.789036 48.0290784,59.4206568 48.0290784,60.0185911 L48.0290784,62.6625 L46.3364936,62.6625 Z" id="Fill-14" fill="#FFFFFF"></path>
                <path d="M53.393803,62.6625 L53.393803,60.2121292 C53.393803,59.9849047 53.3853814,59.5636653 53.0739407,59.3869703 C52.7369174,59.1764301 51.4485699,59.134322 51.1034428,59.3617055 C50.5644597,59.6985699 50.5898835,60.0438559 50.5898835,60.9784958 L50.5898835,62.6625 L48.8381886,62.6625 L48.8381886,57.9133475 L50.5223517,57.9133475 L50.5223517,58.6121822 C50.8929025,58.0565148 51.3055614,57.9133475 51.9370233,57.8459746 C52.1728284,57.8208686 53.9412076,57.7449153 54.5895127,58.3258475 C55.2295551,58.8986758 55.1536017,59.7238347 55.1536017,60.3721398 L55.1536017,62.6625 L53.393803,62.6625" id="Fill-15" fill="#FFFFFF"></path>
                <polygon id="Fill-16" fill="#FFFFFF" points="0.0913665254 60.2254767 18.324947 60.2254767 18.324947 58.423411 0.0913665254 58.423411"></polygon>
                <polygon id="Fill-17" fill="#FFFFFF" points="56.579714 60.2254767 74.8132945 60.2254767 74.8132945 58.423411 56.579714 58.423411"></polygon>
            </g>
        </g>
    </g>
</svg>