<?xml version="1.0" encoding="UTF-8"?>
<svg width="62px" height="62px" viewBox="0 0 62 62" version="1.1" xmlns="http://www.w3.org/2000/svg" xmlns:xlink="http://www.w3.org/1999/xlink">
    <!-- Generator: Sketch 51.3 (57544) - http://www.bohemiancoding.com/sketch -->
    <title>Group 6</title>
    <desc>Created with Sketch.</desc>
    <defs></defs>
    <g id="Page-1" stroke="none" stroke-width="1" fill="none" fill-rule="evenodd">
        <g id="V2-b" transform="translate(-1006.000000, -2117.000000)" fill="#FFFFFF">
            <g id="Group-6" transform="translate(1007.000000, 2118.000000)">
                <circle id="Oval-2-Copy-2" stroke="#FFFFFF" stroke-width="0.5" fill-opacity="0.15" cx="30" cy="30" r="30"></circle>
                <g id="Group" transform="translate(15.692308, 10.153846)">
                    <path d="M18.0866059,9.09980828 L18.0866059,33.6594107 C18.0866059,33.8236574 18.1523036,33.9801774 18.2682455,34.0961143 C18.3841873,34.2120512 18.5407023,34.2777538 18.7049491,34.2777538 L24.8497964,34.2777538 C25.0140432,34.2777538 25.1705632,34.2120561 25.2865001,34.0961143 C25.402437,33.9801725 25.4681396,33.8236574 25.4681396,33.6594107 L25.4681396,9.09980828 C25.4681396,8.93556149 25.4024419,8.77711228 25.2865001,8.66117046 C25.1705583,8.54522864 25.0140432,8.48146509 24.8497964,8.48146509 L18.7049491,8.48146509 C18.3629262,8.48146509 18.0866059,8.75778535 18.0866059,9.09980828 Z M19.3232923,9.71815148 L24.2314038,9.71815148 L24.2314038,33.0410675 L19.3232923,33.0410675 L19.3232923,9.71815148 Z" id="Fill-1"></path>
                    <path d="M10.0135172,34.2782485 L16.1583645,34.2782485 C16.3226113,34.2782485 16.4791313,34.2125508 16.5950681,34.096609 C16.711005,33.9806671 16.7767077,33.8241521 16.7767077,33.6599053 L16.7767077,17.3702722 C16.7767077,17.2060254 16.71101,17.0495054 16.5950681,16.9335685 C16.4791263,16.8176317 16.3226113,16.751929 16.1583645,16.751929 L10.0135172,16.751929 C9.6734284,16.751929 9.39517396,17.0282493 9.39517396,17.3702722 L9.39517396,33.6599053 C9.39517396,33.8241521 9.46087169,33.9806721 9.57681351,34.096609 C9.69275534,34.2125458 9.84927037,34.2782485 10.0135172,34.2782485 Z M10.6318604,17.9925728 L15.5148424,17.994502 L15.5148424,33.0415127 L10.6318604,33.0415127 L10.6318604,17.9925728 Z" id="Fill-2"></path>
                    <path d="M1.31812781,22.9798817 C0.976104876,22.9798817 0.699784615,23.2562019 0.699784615,23.5982249 L0.699784615,33.6599053 C0.699784615,33.8241521 0.765482343,33.9806721 0.881424166,34.096609 C0.997365988,34.2125458 1.15388102,34.2782485 1.31812781,34.2782485 L7.46099645,34.2782485 C7.62910665,34.2821119 7.78949004,34.2183484 7.90929527,34.1024066 C8.02716632,33.9864647 8.09479822,33.8260863 8.09479822,33.6599053 L8.09479822,23.588826 C8.09286405,23.4245792 8.02330291,23.26613 7.90543186,23.1521224 C7.78562663,23.0381147 7.62717742,22.9762804 7.46099645,22.9801438 L1.31812781,22.9798817 Z M6.84265325,33.0415621 L1.93647101,33.0415621 L1.93647101,24.2071692 L6.84458249,24.2071692 L6.84265325,33.0415621 Z" id="Fill-3"></path>
                    <path d="M20.0306769,5.66627219 C20.0306769,6.00829512 20.3089314,6.28461538 20.6490201,6.28461538 C20.9910431,6.28461538 21.2673633,6.00829512 21.2673633,5.66627219 L21.2673633,1.41711669 C21.2673633,1.25286989 21.2035948,1.09634992 21.0876579,0.980413041 C20.9717211,0.864476166 20.8132669,0.798773491 20.6490201,0.798773491 L16.4152985,0.798773491 C16.0732755,0.798773491 15.7969553,1.07509375 15.7969553,1.41711669 C15.7969553,1.75913962 16.0732755,2.03545988 16.4152985,2.03545988 L18.9775643,2.03545988 L0.792338225,20.2246433 C0.666735408,20.338651 0.591376686,20.4971002 0.585579101,20.6671445 C0.579781515,20.8371889 0.645479243,21.0014357 0.765284473,21.1231751 C0.885089704,21.2429804 1.0493365,21.3086781 1.21938088,21.3048147 C1.38942525,21.3009513 1.54980864,21.2275218 1.66381628,21.0999897 L20.0305879,2.73717553 L20.0306769,5.66627219 Z" id="Fill-4"></path>
                </g>
            </g>
        </g>
    </g>
</svg>