<?xml version="1.0" encoding="UTF-8"?>
<svg width="62px" height="62px" viewBox="0 0 62 62" version="1.1" xmlns="http://www.w3.org/2000/svg" xmlns:xlink="http://www.w3.org/1999/xlink">
    <!-- Generator: Sketch 51.3 (57544) - http://www.bohemiancoding.com/sketch -->
    <title>Group 12</title>
    <desc>Created with Sketch.</desc>
    <defs></defs>
    <g id="Page-1" stroke="none" stroke-width="1" fill="none" fill-rule="evenodd">
        <g id="V2-b" transform="translate(-1006.000000, -2011.000000)" fill="#FFFFFF">
            <g id="Group-12" transform="translate(1007.000000, 2012.000000)">
                <circle id="Oval-2-Copy-8" stroke="#FFFFFF" stroke-width="0.5" fill-opacity="0.15" cx="30" cy="30" r="30"></circle>
                <path d="M30.0212378,45.9271692 L29.9804208,45.9271692 C29.8241898,45.9271692 29.6679553,45.8807204 29.5300214,45.7836035 C29.0979262,45.4767698 18.8991536,38.2028407 15.1424621,32.0676799 C15.1368321,32.059234 15.1326095,32.0507881 15.128387,32.0423422 C14.289527,30.651725 13.8461538,29.0542123 13.8461538,27.4216045 C13.8461538,22.4812632 17.8658797,18.4615385 22.8062209,18.4615385 C25.6662573,18.4615385 28.3234337,19.8211682 30.0000005,22.077345 C31.6763151,19.8197269 34.3335636,18.4615385 37.1937802,18.4615385 C42.1341214,18.4615385 46.1538462,22.4812632 46.1538462,27.4216045 C46.1538462,29.0542844 45.710473,30.6517971 44.871613,32.0423422 C44.8673901,32.0507881 44.8617619,32.059234 44.857539,32.0676799 C41.1008474,38.2028407 30.9023632,45.4769716 30.4699797,45.7836035 C30.3348599,45.8807204 30.1772201,45.9271692 30.0209856,45.9271692 L30.0212378,45.9271692 Z M16.4854739,31.2751355 C19.6636004,36.4435589 28.0084928,42.7376207 30.0017805,44.2001577 C31.99478,42.7377648 40.3397084,36.4450002 43.5180871,31.2751355 C43.52231,31.2695037 43.5251241,31.2638755 43.5293471,31.2568384 C44.2288714,30.1041042 44.5990637,28.7782364 44.5990637,27.4212369 C44.5990637,23.3395372 41.2787912,20.0191926 37.1970194,20.0191926 C34.4805344,20.0191926 31.9864386,21.5041055 30.6874866,23.894069 C30.5509579,24.1446027 30.2877481,24.3008337 30.003456,24.3008337 C29.7177334,24.3008337 29.4545452,24.1446027 29.3194254,23.894069 C28.0216985,21.5041415 25.5277829,20.0191926 22.8098926,20.0191926 C18.7281928,20.0191926 15.407849,23.3394651 15.407849,27.4212369 C15.407849,28.7780562 15.7780045,30.103924 16.4775649,31.2568384 C16.4789738,31.2624666 16.4831967,31.2695037 16.4860108,31.2751355 L16.4854739,31.2751355 Z" id="Fill-1"></path>
            </g>
        </g>
    </g>
</svg>