<?xml version="1.0" encoding="UTF-8"?>
<svg width="440px" height="428px" viewBox="0 0 440 428" version="1.1" xmlns="http://www.w3.org/2000/svg" xmlns:xlink="http://www.w3.org/1999/xlink">
    <!-- Generator: Sketch 51.3 (57544) - http://www.bohemiancoding.com/sketch -->
    <title>QuarrySolutionsLogo_PMS144</title>
    <desc>Created with Sketch.</desc>
    <defs>
        <polygon id="path-1" points="243.935347 88.5622932 190.926238 88.5622932 190.926238 35.4966541 156.474455 1.0106391 0.907227723 156.74282 312.041683 156.74282"></polygon>
        <polygon id="path-3" points="0.0653465347 0.127556391 439.285545 0.127556391 439.285545 186.214887 0.0653465347 186.214887"></polygon>
    </defs>
    <g id="Page-1" stroke="none" stroke-width="1" fill="none" fill-rule="evenodd">
        <g id="quarry-solutions" transform="translate(-500.000000, -177.000000)">
            <g id="QuarrySolutionsLogo_PMS144" transform="translate(500.000000, 170.000000)">
                <g id="Group-13" transform="translate(63.168317, 0.000000)">
                    <mask id="mask-2" fill="white">
                        <use xlink:href="#path-1"></use>
                    </mask>
                    <g id="Clip-2"></g>
                    <polygon id="Fill-1" fill="#FFFFFF" mask="url(#mask-2)" points="0.907227723 51.6047368 312.041683 51.6047368 312.041683 43.7202256 0.907227723 43.7202256"></polygon>
                    <polygon id="Fill-3" fill="#FFFFFF" mask="url(#mask-2)" points="0.907227723 67.3748496 312.041683 67.3748496 312.041683 56.8618045 0.907227723 56.8618045"></polygon>
                    <polygon id="Fill-4" fill="#FFFFFF" mask="url(#mask-2)" points="0.907227723 85.7734962 312.041683 85.7734962 312.041683 72.6319173 0.907227723 72.6319173"></polygon>
                    <polygon id="Fill-5" fill="#FFFFFF" mask="url(#mask-2)" points="0.907227723 106.800677 312.041683 106.800677 312.041683 91.0305639 0.907227723 91.0305639"></polygon>
                    <polygon id="Fill-6" fill="#FFFFFF" mask="url(#mask-2)" points="0.907227723 130.457481 312.041683 130.457481 312.041683 112.058835 0.907227723 112.058835"></polygon>
                    <polygon id="Fill-7" fill="#FFFFFF" mask="url(#mask-2)" points="0.907227723 156.74282 312.041683 156.74282 312.041683 135.714549 0.907227723 135.714549"></polygon>
                    <polygon id="Fill-8" fill="#FFFFFF" mask="url(#mask-2)" points="0.907227723 38.4631579 312.041683 38.4631579 312.041683 33.2060902 0.907227723 33.2060902"></polygon>
                    <polygon id="Fill-9" fill="#FFFFFF" mask="url(#mask-2)" points="0.907227723 27.9501128 312.041683 27.9501128 312.041683 25.3204887 0.907227723 25.3204887"></polygon>
                    <polygon id="Fill-10" fill="#FFFFFF" mask="url(#mask-2)" points="0.907227723 20.0645113 312.041683 20.0645113 312.041683 18.7507895 0.907227723 18.7507895"></polygon>
                    <polygon id="Fill-11" fill="#FFFFFF" mask="url(#mask-2)" points="0.907227723 13.4926316 312.041683 13.4926316 312.041683 12.8363158 0.907227723 12.8363158"></polygon>
                    <polygon id="Fill-12" fill="#FFFFFF" mask="url(#mask-2)" points="0.907227723 7.57924812 312.041683 7.57924812 312.041683 7.25109023 0.907227723 7.25109023"></polygon>
                </g>
                <g id="Group-17" transform="translate(0.000000, 176.616541)">
                    <mask id="mask-4" fill="white">
                        <use xlink:href="#path-3"></use>
                    </mask>
                    <g id="Clip-15"></g>
                    <path d="M304.420099,68.1369173 L439.285545,68.1369173 L439.285545,122.529361 C439.285545,140.403609 433.017723,155.469436 420.472277,167.735564 C407.92901,180.009323 392.85901,186.136391 375.245941,186.136391 L253.988911,186.136391 L253.988911,135.259925 L375.257921,135.259925 C384.062277,135.259925 388.45901,130.793271 388.45901,121.861053 L388.45901,118.214248 L253.988911,118.214248 L253.988911,63.8141729 C253.988911,46.477406 260.255644,31.542406 272.802178,19.0069925 C285.344356,6.47921053 300.282574,0.215864662 317.627723,0.215864662 L439.285545,0.215864662 L439.285545,51.0846992 L319.223267,51.0846992 C315.22297,51.0846992 311.818416,52.5096241 309.021584,55.346391 C306.217129,58.1962406 304.682574,61.6380827 304.420099,65.6980827 L304.420099,68.1369173" id="Fill-14" fill="#FFFFFF" mask="url(#mask-4)"></path>
                    <path d="M61.9419802,136.63797 C61.9419802,136.63797 50.7459406,136.851654 50.7459406,126.081316 C50.7459406,115.314248 50.7459406,50.9277068 50.7459406,50.9277068 L120.456535,50.9277068 C130.073366,50.9277068 134.88396,55.7388722 134.88396,65.3601128 L134.88396,101.245977 L117.710891,84.0553008 L84.0182178,117.780338 L102.857624,136.63797 L61.9419802,136.63797 Z M185.757327,135.412556 L185.893465,118.570752 L185.893465,62.1668421 C185.893465,44.7145113 179.198713,29.8045865 165.827723,17.4512406 C152.966436,5.90357143 137.589307,0.127556391 119.650594,0.127556391 L0,0.127556391 L0,123.512744 C0,140.660902 6.55970297,155.398571 19.6725743,167.725752 C32.789802,180.04203 47.9142574,186.214887 65.0470297,186.214887 L232.583564,186.214887 L232.583564,135.412556 L185.757327,135.412556 Z" id="Fill-16" fill="#FFFFFF" mask="url(#mask-4)"></path>
                </g>
                <path d="M33.6730693,398.695489 C33.6730693,394.505752 33.5086139,391.784549 31.5514851,390.095789 C29.3776238,388.246767 26.6036634,388.193346 22.690495,388.193346 L20.2443564,388.193346 C16.3823762,388.193346 13.6105941,388.246767 11.3811881,390.152481 C9.4229703,391.83797 9.25960396,394.505752 9.25960396,398.75109 L9.25960396,409.96297 C9.25960396,414.207218 9.4229703,416.820489 11.3811881,418.505977 C13.6105941,420.412782 16.3823762,420.465113 20.2443564,420.465113 L23.6674257,420.465113 C27.1493069,420.465113 29.3776238,420.358271 30.4122772,419.758647 L22.9616832,412.303684 L25.7334653,409.472368 L33.2929703,416.928421 C33.5086139,415.624511 33.6730693,413.607594 33.6730693,410.886391 L33.6730693,398.695489 Z M18.9918812,384.05485 L23.9952475,384.05485 C34.6521782,384.05485 38.2386139,387.321165 38.2386139,397.607444 L38.2386139,411.051015 C38.2386139,415.13282 37.9674257,417.908534 36.2270297,419.813158 L38.6208911,422.208383 L35.7391089,425.146541 L33.2385149,422.588872 C31.4981188,424.329962 28.5629703,424.601429 23.9952475,424.601429 L18.9918812,424.601429 C8.44386139,424.601429 4.74633663,421.228271 4.74633663,411.051015 L4.74633663,397.607444 C4.74633663,387.430188 8.44386139,384.05485 18.9918812,384.05485 Z" id="Fill-18" fill="#FFFFFF"></path>
                <path d="M68.7946535,424.113008 L64.8259406,424.113008 L64.8259406,420.301579 C63.4667327,423.186316 60.4760396,424.494586 55.6382178,424.494586 C48.189802,424.494586 45.7425743,421.773383 45.7425743,414.480865 L45.7425743,396.13782 L49.8746535,396.13782 L49.8746535,413.607594 C49.8746535,419.05218 50.9071287,420.738759 56.2361386,420.738759 C62.0530693,420.738759 64.6092079,418.18109 64.6092079,412.411617 L64.6092079,396.13782 L68.7946535,396.13782 L68.7946535,424.113008" id="Fill-19" fill="#FFFFFF"></path>
                <path d="M95.6008911,414.043684 C95.6008911,411.26797 92.7713861,410.179925 87.1167327,410.179925 C81.8977228,410.179925 80.3228713,411.105526 80.3228713,415.13282 C80.3228713,419.596203 81.8432673,420.629737 87.5512871,420.629737 C92.9347525,420.629737 95.6008911,419.269135 95.6008911,416.985113 L95.6008911,414.043684 Z M87.0078218,424.494586 C78.8536634,424.494586 75.9707921,422.91703 75.9707921,415.624511 C75.9707921,412.083459 76.4619802,409.799436 78.200198,408.328722 C79.7227723,407.078233 82.4967327,406.750075 86.7910891,406.750075 C91.3577228,406.750075 94.1316832,407.348609 95.6008911,409.472368 L95.6008911,404.627406 C95.6008911,399.674511 94.1316832,399.18718 87.6068317,399.18718 C82.930198,399.18718 81.1908911,399.785714 81.1375248,403.05203 L77.0032673,403.05203 C77.0032673,402.831805 77.0032673,402.61485 77.0032673,402.397895 C77.0032673,397.334887 80.2117822,395.757331 87.3345545,395.757331 C92.5535644,395.757331 95.8709901,396.083308 97.5035644,397.334887 C99.6218812,398.970226 99.7318812,401.199737 99.7318812,404.519474 L99.7318812,424.113008 L95.979901,424.113008 L95.8165347,421.173759 C94.4573267,423.622406 91.6289109,424.494586 87.0078218,424.494586 Z" id="Fill-20" fill="#FFFFFF"></path>
                <path d="M107.993861,396.13782 L112.018119,396.13782 L112.018119,399.948158 C113.212871,397.01 115.662277,395.757331 119.683267,395.757331 C125.993564,395.757331 127.948515,398.587556 127.948515,405.771053 L127.948515,405.988008 L123.760891,405.988008 L123.760891,405.171429 C123.760891,400.871579 122.78505,399.510977 118.705248,399.510977 C113.920792,399.510977 112.181485,402.178759 112.181485,407.840301 L112.181485,424.113008 L107.993861,424.113008 L107.993861,396.13782" id="Fill-21" fill="#FFFFFF"></path>
                <path d="M133.439802,396.13782 L137.46297,396.13782 L137.46297,399.948158 C138.658812,397.01 141.10495,395.757331 145.129208,395.757331 C151.435149,395.757331 153.393366,398.587556 153.393366,405.771053 L153.393366,405.988008 L149.206832,405.988008 L149.206832,405.171429 C149.206832,400.871579 148.226634,399.510977 144.150099,399.510977 C139.365644,399.510977 137.626337,402.178759 137.626337,407.840301 L137.626337,424.113008 L133.439802,424.113008 L133.439802,396.13782" id="Fill-22" fill="#FFFFFF"></path>
                <path d="M159.017525,396.13782 L167.33505,420.194737 L175.601386,396.13782 L179.67901,396.13782 L169.13099,426.561654 C167.118317,432.385639 165.323465,435 160.810198,435 C160.16,435 159.452079,434.943308 158.636337,434.835376 L158.636337,431.187481 C159.069802,431.241992 159.505446,431.241992 159.886634,431.241992 C162.660594,431.241992 163.693069,430.101617 164.835545,426.998835 L165.86802,424.113008 L164.616634,424.113008 L154.885446,396.13782 L159.017525,396.13782" id="Fill-23" fill="#FFFFFF"></path>
                <path d="M192.615446,411.868684 C192.615446,411.976617 192.615446,412.14015 192.615446,412.246992 C192.615446,415.13282 193.921287,416.111842 197.782178,416.111842 L200.446139,416.111842 C203.601287,416.111842 204.793861,415.404286 204.793861,413.172594 L204.793861,411.431504 C204.793861,409.147481 203.437921,408.819323 200.55505,408.492256 L191.965248,407.568835 C185.549307,406.860188 182.723069,403.703985 182.723069,397.170263 L182.723069,394.722707 C182.723069,391.021391 183.916733,388.082143 186.147228,386.23312 C188.431089,384.328496 191.420693,384.05485 195.716139,384.05485 L202.077624,384.05485 C210.070594,384.05485 214.25604,387.430188 214.25604,393.362105 L214.25604,396.083308 L204.089208,396.083308 C204.089208,395.920865 204.089208,395.809662 204.089208,395.649398 C204.089208,393.253083 203.110099,392.493195 200.227228,392.493195 L197.782178,392.493195 C194.683663,392.493195 193.378911,393.036128 193.378911,395.157707 L193.378911,396.791955 C193.378911,398.970226 194.845941,399.130489 197.673267,399.457556 L205.50396,400.330827 C212.245545,401.091805 215.560792,404.248008 215.560792,409.96297 L215.560792,413.772218 C215.560792,420.248158 211.265347,424.601429 204.30703,424.601429 L195.660594,424.601429 C186.580693,424.601429 182.448614,421.66218 182.448614,414.587707 L182.448614,411.868684 L192.615446,411.868684" id="Fill-24" fill="#FFFFFF"></path>
                <path d="M229.425149,412.357105 C229.425149,416.493421 229.64297,417.800602 232.795941,417.800602 L233.882871,417.800602 C237.035842,417.800602 237.200297,416.44 237.200297,412.357105 L237.200297,407.892632 C237.200297,403.758496 237.035842,402.450226 233.882871,402.450226 L232.795941,402.450226 C229.64297,402.450226 229.425149,403.810827 229.425149,407.892632 L229.425149,412.357105 Z M231.436733,395.757331 L235.188713,395.757331 C243.452871,395.757331 246.281287,398.859023 246.281287,407.240677 L246.281287,413.00906 C246.281287,421.390714 243.452871,424.494586 235.188713,424.494586 L231.436733,424.494586 C223.172574,424.494586 220.345248,421.390714 220.345248,413.00906 L220.345248,407.240677 C220.345248,398.859023 223.172574,395.757331 231.436733,395.757331 Z" id="Fill-25" fill="#FFFFFF"></path>
                <polygon id="Fill-26" fill="#FFFFFF" points="252.802871 424.113008 261.828317 424.113008 261.828317 384.545451 252.802871 384.545451"></polygon>
                <path d="M294.505941,424.113008 L285.91396,424.113008 L286.02396,420.141316 C284.392475,423.297519 282.000792,424.494586 278.084356,424.494586 C271.01604,424.494586 269.221188,421.825714 269.221188,414.370752 L269.221188,396.13782 L278.084356,396.13782 L278.084356,412.357105 C278.084356,416.547932 278.737822,417.202068 282.054158,417.202068 C285.31604,417.202068 285.641683,415.624511 285.641683,411.868684 L285.641683,396.13782 L294.505941,396.13782 L294.505941,424.113008" id="Fill-27" fill="#FFFFFF"></path>
                <path d="M303.802574,421.66218 C302.442277,419.867669 302.332277,417.854023 302.332277,415.404286 C302.332277,414.915865 302.332277,414.426353 302.332277,413.881241 L302.332277,402.61485 L299.124851,402.61485 L299.124851,396.13782 L302.332277,396.13782 L302.332277,390.751015 L311.195446,390.751015 L311.195446,396.13782 L323.048218,396.13782 L323.048218,402.61485 L311.195446,402.61485 L311.195446,414.043684 C311.195446,417.037444 311.467723,417.964135 314.077228,417.964135 C316.362178,417.964135 316.850099,417.202068 316.850099,414.968195 L316.850099,412.628571 L324.245149,412.628571 L324.245149,415.784774 C324.245149,421.718872 321.582277,424.494586 315.655347,424.494586 L310.924257,424.494586 C307.607921,424.494586 305.268515,423.568985 303.802574,421.66218" id="Fill-28" fill="#FFFFFF"></path>
                <path d="M329.789802,424.113008 L338.815248,424.113008 L338.815248,396.13782 L329.789802,396.13782 L329.789802,424.113008 Z M329.789802,391.509812 L338.815248,391.509812 L338.815248,384.545451 L329.789802,384.545451 L329.789802,391.509812 Z" id="Fill-29" fill="#FFFFFF"></path>
                <path d="M354.145545,412.357105 C354.145545,416.493421 354.364455,417.800602 357.517426,417.800602 L358.605446,417.800602 C361.757327,417.800602 361.921782,416.44 361.921782,412.357105 L361.921782,407.892632 C361.921782,403.758496 361.757327,402.450226 358.605446,402.450226 L357.517426,402.450226 C354.364455,402.450226 354.145545,403.810827 354.145545,407.892632 L354.145545,412.357105 Z M356.158218,395.757331 L359.911287,395.757331 C368.173267,395.757331 371.001683,398.859023 371.001683,407.240677 L371.001683,413.00906 C371.001683,421.390714 368.173267,424.494586 359.911287,424.494586 L356.158218,424.494586 C347.894059,424.494586 345.068911,421.390714 345.068911,413.00906 L345.068911,407.240677 C345.068911,398.859023 347.894059,395.757331 356.158218,395.757331 Z" id="Fill-30" fill="#FFFFFF"></path>
                <path d="M377.416535,396.13782 L386.006337,396.13782 L385.898515,400.110602 C387.528911,396.953308 389.921683,395.757331 393.835941,395.757331 C400.903168,395.757331 402.69802,398.478534 402.69802,405.934586 L402.69802,424.113008 L393.835941,424.113008 L393.835941,407.892632 C393.835941,403.703985 393.184653,403.05203 389.867228,403.05203 C386.606436,403.05203 386.278614,404.684098 386.278614,408.438835 L386.278614,424.113008 L377.416535,424.113008 L377.416535,396.13782" id="Fill-31" fill="#FFFFFF"></path>
                <path d="M417.540396,416.111842 C417.867129,418.343534 418.846238,418.834135 421.23901,418.834135 L422.434851,418.834135 C425.099901,418.834135 426.075743,418.234511 426.075743,416.111842 C426.075743,414.043684 425.207723,413.555263 422.325941,413.283797 L416.615743,412.737594 C411.613465,412.246992 408.679406,409.307744 408.679406,405.499586 L408.679406,403.266805 C408.679406,398.425113 412.212475,395.757331 419.117426,395.757331 L424.608713,395.757331 C430.970198,395.757331 434.124257,398.207068 434.124257,403.05203 C434.124257,403.213383 434.124257,403.430338 434.124257,403.650564 L425.316634,403.650564 C425.262178,402.069737 424.174158,401.363271 421.944752,401.363271 L420.803366,401.363271 C418.357228,401.363271 417.431485,402.126429 417.431485,404.027782 C417.431485,405.66312 418.138317,406.208233 420.042079,406.368496 L426.34802,406.96812 C432.111584,407.512143 434.94,409.635902 434.94,413.772218 L434.94,416.165263 C434.94,421.284962 431.243564,424.494586 424.935446,424.494586 L419.006337,424.494586 C411.832376,424.494586 408.351584,421.936917 408.351584,416.493421 C408.351584,416.383308 408.351584,416.221955 408.351584,416.111842 L417.540396,416.111842" id="Fill-32" fill="#FFFFFF"></path>
            </g>
        </g>
    </g>
</svg>