<?xml version="1.0" encoding="UTF-8"?>
<svg width="444px" height="372px" viewBox="0 0 444 372" version="1.1" xmlns="http://www.w3.org/2000/svg" xmlns:xlink="http://www.w3.org/1999/xlink">
    <!-- Generator: Sketch 51.3 (57544) - http://www.bohemiancoding.com/sketch -->
    <title>Group Copy 2</title>
    <desc>Created with Sketch.</desc>
    <defs>
        <polygon id="path-1" points="0.0564507136 0.416794436 135.505234 0.416794436 135.505234 136.243797 0.0564507136 136.243797"></polygon>
        <polygon id="path-3" points="0.460073316 0.654828278 72.3585248 0.654828278 72.3585248 41.3407393 0.460073316 41.3407393"></polygon>
    </defs>
    <g id="Page-1" stroke="none" stroke-width="1" fill="none" fill-rule="evenodd">
        <g id="urban-home-copy" transform="translate(-495.000000, -170.000000)">
            <g id="Group-Copy-2" transform="translate(495.000000, 170.000000)">
                <g id="Group-3" transform="translate(0.000000, 176.878903)">
                    <mask id="mask-2" fill="white">
                        <use xlink:href="#path-1"></use>
                    </mask>
                    <g id="Clip-2"></g>
                    <path d="M36.8801921,50.0407351 L135.505234,50.0407351 L135.505234,89.7782741 C135.505234,102.824034 130.917673,113.843213 121.74255,122.796297 C112.576836,131.751261 101.556716,136.243797 88.672781,136.243797 L0,136.243797 L0,99.0634757 L88.6803078,99.0634757 C95.1213342,99.0634757 98.3314981,95.8222639 98.3314981,89.2890346 L98.3314981,86.6255018 L0,86.6255018 L0,46.8860811 C0,34.2072508 4.5828571,23.2962687 13.7570389,14.1427855 C22.9321616,4.99400647 33.8516113,0.416794436 46.5379683,0.416794436 L135.505234,0.416794436 L135.505234,37.5801809 L47.7121432,37.5801809 C44.7823511,37.5801809 42.2919338,38.6094656 40.2455955,40.7000237 C38.1945529,42.7689424 37.0674203,45.2857033 36.8801921,48.248425 L36.8801921,50.0407351" id="Fill-1" fill="#FFFFFF" mask="url(#mask-2)"></path>
                </g>
                <path d="M289.429395,222.83731 L289.429395,263.892033 L190.969001,263.892033 L190.969001,265.918613 C190.969001,272.7388 194.378624,276.143719 201.193166,276.143719 L289.429395,276.143719 L289.429395,313.1227 L201.381335,313.1227 C188.894437,313.1227 177.884666,308.630164 168.32662,299.66485 C158.768573,290.691068 153.995665,279.965433 153.995665,267.483239 L153.995665,177.672035 L241.161212,177.672035 C254.227671,177.672035 265.441605,181.878554 274.793606,190.292533 C284.553935,199.277605 289.429395,210.133077 289.429395,222.83731 M252.265067,225.161198 C252.265067,218.158487 248.758537,214.66607 241.750181,214.66607 L190.969001,214.66607 L190.969001,226.919638 L252.265067,226.919638 L252.265067,225.161198" id="Fill-4" fill="#FFFFFF"></path>
                <g id="Group-8" transform="translate(62.095785, 0.000000)" fill="#FFFFFF">
                    <path d="M381.417714,222.83731 L381.417714,263.892033 L282.966729,263.892033 L282.966729,265.918613 C282.966729,272.7388 286.373529,276.143719 293.184308,276.143719 L381.417714,276.143719 L381.417714,313.1227 L293.388472,313.1227 C280.894047,313.1227 269.875808,308.630164 260.326229,299.66485 C250.767242,290.691068 245.994334,279.965433 245.994334,267.483239 L245.994334,177.672035 L333.164585,177.672035 C346.228221,177.672035 357.441215,181.878554 366.805447,190.292533 C376.54884,199.277605 381.417714,210.133077 381.417714,222.83731 M344.259973,225.161198 C344.259973,218.158487 340.754384,214.66607 333.752613,214.66607 L282.966729,214.66607 L282.966729,226.919638 L344.259973,226.919638 L344.259973,225.161198" id="Fill-5"></path>
                    <polyline id="Fill-7" points="249.234605 90.3578348 194.94219 90.3578348 194.94219 36.0682426 159.666139 0.78466492 0.363166258 160.097046 318.976639 160.097046 249.234605 90.3578348"></polyline>
                </g>
                <path d="M129.107486,330.891503 L129.107486,350.586216 C129.107486,353.129321 128.809238,357.666077 130.70316,359.610804 C132.647887,361.505666 135.838293,361.206477 137.583561,361.206477 L147.45585,361.206477 C148.552876,361.206477 151.892876,361.505666 153.688009,359.660668 C155.283682,357.965265 154.984493,354.524594 154.984493,350.885405 L154.984493,330.891503 L167.149622,330.891503 L167.149622,354.674189 C167.149622,359.211885 167.599346,363.648911 164.009081,367.338906 C160.170432,371.22742 155.233817,371.027961 149.998014,371.027961 L132.049509,371.027961 C127.761137,371.027961 124.321407,371.377014 120.332223,367.289042 C116.543439,363.349723 116.942358,356.519186 116.942358,353.377704 L116.942358,330.891503 L129.107486,330.891503" id="Fill-9" fill="#FFFFFF"></path>
                <g id="Group-13" transform="translate(171.233831, 330.236675)">
                    <mask id="mask-4" fill="white">
                        <use xlink:href="#path-3"></use>
                    </mask>
                    <g id="Clip-11"></g>
                    <path d="M22.1484375,25.5345395 C22.1484375,23.8400772 22.1484375,21.7457557 19.9045216,20.7484598 C18.3088481,20.0004878 14.619794,19.9007583 12.9243909,21.197243 C10.5308806,22.8926461 10.8300694,26.7821002 10.8300694,29.8727768 L10.8300694,40.7912857 L0.460073316,40.7912857 L0.460073316,12.6713035 L10.4810158,12.6713035 L10.4810158,17.4084592 C12.2262837,14.3168418 14.3206052,12.6214387 18.0595241,12.2723851 C20.802088,11.9731964 26.7849228,11.823602 29.5773514,15.513597 C31.3724841,17.7575128 31.1222193,22.4429221 31.1222193,25.5345395 L22.1484375,25.5345395" id="Fill-10" fill="#FFFFFF" mask="url(#mask-4)"></path>
                    <path d="M47.6293488,33.063183 C47.6293488,33.063183 50.819755,33.2137182 52.8642116,33.2137182 C55.1081275,33.2137182 58.5478577,33.063183 58.5478577,33.063183 C61.2414975,33.063183 62.2378526,30.9199376 62.2378526,29.1248049 C62.2378526,29.1248049 62.3385231,27.5789962 62.3385231,26.5318354 C62.3385231,25.5345395 62.2378526,23.9896716 62.2378526,23.9896716 C62.2378526,22.1945389 61.2414975,20.0503526 58.5478577,20.0503526 C58.5478577,20.0503526 54.9585331,19.9007583 52.6647525,19.9007583 C50.6701606,19.9007583 47.6293488,20.0503526 47.6293488,20.0503526 C44.9865146,20.0503526 43.9393538,22.1945389 43.9393538,23.9896716 C43.9393538,23.9896716 43.889489,25.4348099 43.889489,26.3323762 C43.889489,27.4294018 43.9393538,29.1248049 43.9393538,29.1248049 C43.9393538,30.9199376 44.9865146,33.063183 47.6293488,33.063183 Z M44.0889482,36.005206 L44.0889482,40.7912857 L33.7189521,40.7912857 L33.7189521,0.654828278 L44.0889482,0.654828278 L44.0889482,17.6568424 C45.0862441,14.765625 47.6293488,12.9206275 50.8696198,12.4718443 C52.7146173,12.1726556 59.944072,12.1237316 59.944072,12.1237316 C62.935019,12.0230612 64.5316333,12.3721147 65.7782532,12.7710331 C68.320417,13.5190051 70.4147385,15.1137377 71.4618993,17.9061664 C72.010412,19.2026511 72.3585248,21.5961614 72.3585248,24.1891308 L72.3585248,29.2743993 C72.3585248,32.0160222 72.010412,34.3107438 71.4618993,35.5564228 C70.4147385,38.3488515 68.320417,39.9943898 65.7782532,40.7423617 C64.5316333,41.0914153 62.935019,41.3896632 59.944072,41.3896632 C56.2042122,41.4404689 52.7146173,41.2410097 50.8696198,40.9408801 C47.6293488,40.4930377 45.0862441,38.8973642 44.0889482,36.005206 Z" id="Fill-12" fill="#FFFFFF" mask="url(#mask-4)"></path>
                </g>
                <path d="M271.767848,364.697013 C272.715279,364.446748 273.562981,364.1485 274.011764,362.751345 C274.261088,361.75499 274.011764,360.557294 272.964603,359.760398 C272.416091,359.36148 271.019876,359.162021 269.174879,359.162021 L262.493937,359.162021 C260.648939,359.162021 259.253666,359.36148 258.705153,359.760398 C257.707857,360.557294 257.409609,361.75499 257.707857,362.751345 C258.106775,364.1485 258.954477,364.446748 259.900967,364.697013 C260.200156,364.745937 261.097722,364.845667 262.345283,364.845667 L269.325414,364.845667 C270.572034,364.845667 271.468659,364.745937 271.767848,364.697013 Z M274.360818,371.027961 L274.360818,367.78769 C271.2692,370.729713 269.623662,371.027961 266.333526,371.027961 L258.355159,371.027961 C255.413136,371.027961 250.777591,371.32809 248.632464,368.086878 C247.087596,365.793098 246.987867,359.610804 248.035968,357.317023 C249.331512,354.425806 251.923541,353.677834 254.666104,353.32878 C258.954477,352.730403 269.475008,352.280679 273.86217,355.073107 C273.86217,352.580808 274.061629,350.287027 272.366226,349.339596 C271.320006,348.691354 270.073386,348.840948 268.727036,348.840948 C268.328118,348.840948 261.396911,348.840948 261.396911,348.840948 C260.648939,348.840948 259.802179,348.990543 259.602719,349.141078 C258.655288,349.78838 258.655288,350.586216 258.555559,351.034999 L248.384081,351.034999 C248.832864,343.306897 252.971642,342.360406 259.253666,342.360406 L271.119606,342.360406 C274.061629,342.360406 278.797844,341.960547 281.939326,345.301489 C284.680949,348.092976 284.382701,351.832836 284.382701,355.373237 L284.382701,371.027961 L274.360818,371.027961 Z" id="Fill-14" fill="#FFFFFF"></path>
                <path d="M316.147518,371.027961 L316.147518,356.519186 C316.147518,355.173778 316.097653,352.679597 314.253596,351.633377 C312.258063,350.386757 304.62969,350.137433 302.586174,351.483783 C299.394827,353.478374 299.545363,355.522831 299.545363,361.056883 L299.545363,371.027961 L289.173485,371.027961 L289.173485,342.907978 L299.145503,342.907978 L299.145503,347.045816 C301.339555,343.75568 303.78293,342.907978 307.521849,342.50906 C308.918063,342.360406 319.388729,341.910682 323.227378,345.350413 C327.017102,348.74216 326.567378,353.627969 326.567378,357.466617 L326.567378,371.027961 L316.147518,371.027961" id="Fill-15" fill="#FFFFFF"></path>
                <polygon id="Fill-16" fill="#FFFFFF" points="0.540986006 356.598217 108.502976 356.598217 108.502976 345.928092 0.540986006 345.928092"></polygon>
                <polygon id="Fill-17" fill="#FFFFFF" points="335.011464 356.598217 442.973454 356.598217 442.973454 345.928092 335.011464 345.928092"></polygon>
            </g>
        </g>
    </g>
</svg>