<?xml version="1.0" encoding="UTF-8"?>
<svg width="450px" height="377px" viewBox="0 0 450 377" version="1.1" xmlns="http://www.w3.org/2000/svg" xmlns:xlink="http://www.w3.org/1999/xlink">
    <!-- Generator: Sketch 51.3 (57544) - http://www.bohemiancoding.com/sketch -->
    <title>SEE logo_PMS144</title>
    <desc>Created with Sketch.</desc>
    <defs>
        <polygon id="path-1" points="0.0572033898 0.566313559 137.31197 0.566313559 137.31197 138.205297 0.0572033898 138.205297"></polygon>
        <polygon id="path-3" points="0.368961864 0.939088983 323.229661 0.939088983 323.229661 376.53178 0.368961864 376.53178"></polygon>
    </defs>
    <g id="Page-1" stroke="none" stroke-width="1" fill="none" fill-rule="evenodd">
        <g id="see-civil" transform="translate(-495.000000, -170.000000)">
            <g id="SEE-logo_PMS144" transform="translate(495.000000, 170.000000)">
                <g id="Group-3" transform="translate(0.000000, 179.237288)">
                    <mask id="mask-2" fill="white">
                        <use xlink:href="#path-1"></use>
                    </mask>
                    <g id="Clip-2"></g>
                    <path d="M37.371928,50.8519068 L137.31197,50.8519068 L137.31197,91.1192797 C137.31197,104.338983 132.663242,115.504131 123.365784,124.578496 C114.076907,133.651907 102.910805,138.205297 89.8550847,138.205297 L0,138.205297 L0,100.528284 L89.8627119,100.528284 C96.3896186,100.528284 99.6425847,97.2448093 99.6425847,90.6235169 L99.6425847,87.9244703 L0,87.9244703 L0,47.6551907 C0,34.8073093 4.64396186,23.7508475 13.9404661,14.4753178 C23.2379237,5.20455508 34.3029661,0.566313559 47.1584746,0.566313559 L137.31197,0.566313559 L137.31197,38.2252119 L48.3483051,38.2252119 C45.3794492,38.2252119 42.8558263,39.2682203 40.7822034,41.3856992 C38.7038136,43.4831568 37.5616525,46.0334746 37.371928,49.0356992 L37.371928,50.8519068" id="Fill-1" fill="#FFFFFF" mask="url(#mask-2)"></path>
                </g>
                <path d="M293.288453,225.952436 L293.288453,267.554555 L193.515254,267.554555 L193.515254,269.60911 C193.515254,276.51928 196.970339,279.968644 203.875742,279.968644 L293.288453,279.968644 L293.288453,317.442585 L204.066419,317.442585 C191.41303,317.442585 180.256462,312.889195 170.570975,303.804343 C160.885487,294.709958 156.048941,283.842267 156.048941,271.192691 L156.048941,180.184958 L244.376695,180.184958 C257.617373,180.184958 268.979873,184.447564 278.458475,192.972775 C288.348941,202.078602 293.288453,213.078814 293.288453,225.952436 M255.628602,228.307309 C255.628602,221.210275 252.076271,217.672246 244.973517,217.672246 L193.515254,217.672246 L193.515254,230.089195 L255.628602,230.089195 L255.628602,228.307309" id="Fill-4" fill="#FFFFFF"></path>
                <path d="M449.427013,225.952436 L449.427013,267.554555 L349.663347,267.554555 L349.663347,269.60911 C349.663347,276.51928 353.115572,279.968644 360.017161,279.968644 L449.427013,279.968644 L449.427013,317.442585 L360.224047,317.442585 C347.56303,317.442585 336.396928,312.889195 326.721928,303.804343 C317.034534,294.709958 312.197987,283.842267 312.197987,271.192691 L312.197987,180.184958 L400.530508,180.184958 C413.767373,180.184958 425.130826,184.447564 434.619915,192.972775 C444.49322,202.078602 449.427013,213.078814 449.427013,225.952436 M411.773835,228.307309 C411.773835,221.210275 408.220551,217.672246 401.126377,217.672246 L349.663347,217.672246 L349.663347,230.089195 L411.773835,230.089195 L411.773835,228.307309" id="Fill-5" fill="#FFFFFF"></path>
                <g id="Group-9" transform="translate(62.923729, 0.000000)">
                    <mask id="mask-4" fill="white">
                        <use xlink:href="#path-3"></use>
                    </mask>
                    <g id="Clip-7"></g>
                    <polyline id="Fill-6" fill="#FFFFFF" mask="url(#mask-4)" points="252.557733 91.7065678 197.541419 91.7065678 197.541419 36.6931144 161.795975 0.939088983 0.368961864 162.375636 323.229661 162.375636 252.557733 91.7065678"></polyline>
                    <path d="M132.632733,350.183898 L132.632733,349.773941 C132.632733,348.195127 132.111229,347.037712 131.067267,346.304555 C130.024258,345.568538 128.36822,345.201483 126.099153,345.201483 L116.189619,345.201483 C111.94322,345.201483 109.217479,345.714407 108.009534,346.740254 C106.803496,347.766102 106.2,349.911229 106.2,353.177542 L106.2,358.813983 C106.2,361.736123 106.871186,363.739195 108.214513,364.827966 C109.556886,365.919597 112.21589,366.463983 116.189619,366.463983 L123.377225,366.463983 C127.314725,366.463983 129.896504,366.068326 131.12161,365.277013 C132.346716,364.489513 132.959746,363.022246 132.959746,360.881886 L132.959746,360.44714 L145.509216,360.44714 C145.509216,360.501483 145.517797,360.601589 145.535911,360.744597 C145.590254,361.924894 145.617903,362.804873 145.617903,363.386441 C145.617903,365.982521 145.29089,368.122881 144.637818,369.810381 C143.984746,371.497881 142.958898,372.849788 141.562182,373.867055 C140.23697,374.84714 138.472246,375.545975 136.267055,375.961653 C134.062818,376.380191 130.826059,376.588983 126.561547,376.588983 L112.732627,376.588983 C108.504343,376.588983 105.392479,376.36303 103.395127,375.907309 C101.399682,375.454449 99.6931144,374.68411 98.2782839,373.595339 C96.6451271,372.305403 95.45625,370.723729 94.7106992,368.844597 C93.9680085,366.965466 93.5952331,364.592479 93.5952331,361.724682 L93.5952331,350.673941 C93.5952331,344.86589 94.9747881,340.814936 97.7338983,338.520127 C100.491102,336.221504 105.491631,335.07553 112.732627,335.07553 L126.561547,335.07553 C131.008157,335.07553 134.284958,335.273835 136.389089,335.674258 C138.495127,336.072775 140.154979,336.743008 141.371504,337.688771 C142.659534,338.668856 143.608157,339.989301 144.216419,341.648199 C144.823729,343.309958 145.12786,345.393114 145.12786,347.897669 C145.12786,348.496398 145.123093,348.954979 145.114513,349.272458 C145.104979,349.58803 145.082097,349.894068 145.045869,350.183898 L132.632733,350.183898" id="Fill-8" fill="#FFFFFF" mask="url(#mask-4)"></path>
                </g>
                <path d="M212.777542,376.098941 L223.095127,376.098941 L223.095127,347.433369 L212.777542,347.433369 L212.777542,376.098941 Z M212.777542,343.978284 L223.095127,343.978284 L223.095127,335.565572 L212.777542,335.565572 L212.777542,343.978284 Z" id="Fill-10" fill="#FFFFFF"></path>
                <polyline id="Fill-11" fill="#FFFFFF" points="251.669174 376.098941 238.684004 376.098941 224.907521 347.433369 236.506462 347.433369 245.107945 367.524153 254.006886 347.433369 265.438983 347.433369 251.669174 376.098941"></polyline>
                <path d="M266.954873,376.098941 L277.272458,376.098941 L277.272458,347.433369 L266.954873,347.433369 L266.954873,376.098941 Z M266.954873,343.978284 L277.272458,343.978284 L277.272458,335.565572 L266.954873,335.565572 L266.954873,343.978284 Z" id="Fill-12" fill="#FFFFFF"></path>
                <polygon id="Fill-13" fill="#FFFFFF" points="283.113877 376.098941 293.431462 376.098941 293.431462 335.565572 283.113877 335.565572"></polygon>
                <polygon id="Fill-14" fill="#FFFFFF" points="0.831355932 361.239407 150.528814 361.239407 150.528814 350.426059 0.831355932 350.426059"></polygon>
                <polygon id="Fill-15" fill="#FFFFFF" points="299.53697 361.239407 449.235381 361.239407 449.235381 350.426059 299.53697 350.426059"></polygon>
            </g>
        </g>
    </g>
</svg>