<?xml version="1.0" encoding="UTF-8"?>
<svg width="244px" height="135px" viewBox="0 0 244 135" version="1.1" xmlns="http://www.w3.org/2000/svg" xmlns:xlink="http://www.w3.org/1999/xlink">
    <!-- Generator: Sketch 51.3 (57544) - http://www.bohemiancoding.com/sketch -->
    <title>ics-logo-new</title>
    <desc>Created with Sketch.</desc>
    <defs>
        <polygon id="path-1" points="0.06 0.223 119.379 0.223 119.379 96.174 0.06 96.174"></polygon>
        <polygon id="path-3" points="0.06 0.223 119.379 0.223 119.379 96.174 0.06 96.174"></polygon>
    </defs>
    <g id="Page-1" stroke="none" stroke-width="1" fill="none" fill-rule="evenodd">
        <g id="ics-logo-new">
            <g id="Group-4">
                <g id="Fill-1-Clipped">
                    <g>
                        <mask id="mask-2" fill="white">
                            <use xlink:href="#path-1"></use>
                        </mask>
                        <g id="path-1"></g>
                        <polyline id="Fill-1" fill="#FFFFFF" fill-rule="nonzero" mask="url(#mask-2)" points="93.248 70.044 72.905 70.044 72.905 49.702 59.688 36.482 0 96.174 119.379 96.174 93.248 70.044"></polyline>
                    </g>
                </g>
                <g id="Fill-3-Clipped">
                    <g>
                        <mask id="mask-4" fill="white">
                            <use xlink:href="#path-3"></use>
                        </mask>
                        <g id="path-3"></g>
                        <polygon id="Fill-3" fill="#FFFFFF" fill-rule="nonzero" mask="url(#mask-4)" points="76.764 66.018 93.116 66.018 93.116 0.223 76.764 0.223"></polygon>
                    </g>
                </g>
            </g>
            <path d="M97.573,33.212 C97.573,15.044 112.217,0.296 130.493,0.296 C143.209,0.296 154.326,7.564 159.777,18.252 L145.669,25.412 C142.889,19.856 137.333,16.327 130.493,16.327 C120.765,16.327 113.5,23.488 113.5,33.212 C113.5,42.94 120.765,50.1 130.493,50.1 C137.333,50.1 142.889,46.572 145.669,41.016 L159.777,48.176 C154.326,58.864 143.209,66.132 130.493,66.132 C112.217,66.132 97.573,51.384 97.573,33.212" id="Fill-5" fill="#FFFFFF" fill-rule="nonzero"></path>
            <path d="M161.49,51.384 L174.85,43.044 C177.094,47.856 181.582,50.848 187.142,50.848 C191.31,50.848 193.446,49.032 193.446,46.468 C193.446,36.74 164.27,42.084 164.27,19.856 C164.27,6.176 175.49,0.296 185.646,0.296 C193.662,0.296 201.25,3.928 206.274,9.808 L195.585,20.175 C192.165,16.54 188.638,14.616 185.43,14.616 C182.866,14.616 180.73,15.9 180.73,18.679 C180.73,28.404 209.798,22.312 209.798,46.68 C209.798,58.972 199.218,66.132 186.926,66.132 C175.17,66.132 165.766,59.505 161.49,51.384" id="Fill-6" fill="#FFFFFF" fill-rule="nonzero"></path>
            <polygon id="Fill-7" fill="#FFFFFF" fill-rule="nonzero" points="126.232 96.209 129.796 96.209 129.796 82.233 126.232 82.233"></polygon>
            <polyline id="Fill-8" fill="#FFFFFF" fill-rule="nonzero" points="146.054 82.233 146.054 96.209 142.305 96.209 136.015 87.636 136.015 96.209 132.453 96.209 132.453 82.233 136.179 82.233 142.491 90.782 142.491 82.233 146.054 82.233"></polyline>
            <polyline id="Fill-9" fill="#FFFFFF" fill-rule="nonzero" points="157.515 85.331 154.09 85.331 154.09 96.209 150.55 96.209 150.55 85.331 147.126 85.331 147.126 82.233 157.515 82.233 157.515 85.331"></polyline>
            <polyline id="Fill-10" fill="#FFFFFF" fill-rule="nonzero" points="162.267 85.331 162.267 87.683 166.576 87.683 166.576 90.758 162.267 90.758 162.267 93.11 167.368 93.11 167.368 96.209 158.703 96.209 158.703 82.233 167.368 82.233 167.368 85.331 162.267 85.331"></polyline>
            <path d="M183.3,88.453 L183.3,89.22 C183.3,93.181 180.085,96.395 176.126,96.395 C172.143,96.395 168.952,93.181 168.952,89.22 C168.952,85.261 172.143,82.047 176.126,82.047 C178.898,82.047 181.32,83.631 182.508,85.961 L179.434,87.52 C178.828,86.309 177.617,85.541 176.126,85.541 C174.006,85.541 172.423,87.101 172.423,89.22 C172.423,91.341 174.006,92.901 176.126,92.901 C177.5,92.901 178.641,92.225 179.294,91.177 L176.103,91.177 L176.103,88.453 L183.3,88.453" id="Fill-11" fill="#FFFFFF" fill-rule="nonzero"></path>
            <path d="M192.432,86.775 C192.432,85.936 191.826,85.331 190.987,85.331 L188.914,85.331 L188.914,88.219 L190.987,88.219 C191.826,88.219 192.432,87.614 192.432,86.775 Z M196.997,96.209 L192.991,96.209 L189.73,91.085 L188.914,91.085 L188.914,96.209 L185.351,96.209 L185.351,82.233 L191.57,82.233 C194.062,82.233 195.856,84.214 195.856,86.635 C195.856,88.546 194.738,90.106 193.131,90.665 L196.997,96.209 Z" id="Fill-12" fill="#FFFFFF" fill-rule="nonzero"></path>
            <path d="M204.987,90.875 L203.426,85.936 L201.889,90.875 L204.987,90.875 Z M205.871,93.763 L200.98,93.763 L200.212,96.209 L196.369,96.209 L201.423,82.233 L205.407,82.233 L210.46,96.209 L206.641,96.209 L205.871,93.763 Z" id="Fill-13" fill="#FFFFFF" fill-rule="nonzero"></path>
            <polyline id="Fill-14" fill="#FFFFFF" fill-rule="nonzero" points="219.871 85.331 216.447 85.331 216.447 96.209 212.907 96.209 212.907 85.331 209.484 85.331 209.484 82.233 219.871 82.233 219.871 85.331"></polyline>
            <polyline id="Fill-15" fill="#FFFFFF" fill-rule="nonzero" points="224.623 85.331 224.623 87.683 228.933 87.683 228.933 90.758 224.623 90.758 224.623 93.11 229.725 93.11 229.725 96.209 221.06 96.209 221.06 82.233 229.725 82.233 229.725 85.331 224.623 85.331"></polyline>
            <path d="M236.643,93.11 C238.576,93.11 240.089,91.411 240.089,89.22 C240.089,87.032 238.576,85.331 236.643,85.331 L235.362,85.331 L235.362,93.11 L236.643,93.11 Z M231.798,82.233 L236.643,82.233 C240.486,82.233 243.63,85.354 243.63,89.22 C243.63,93.088 240.486,96.209 236.643,96.209 L231.798,96.209 L231.798,82.233 Z" id="Fill-16" fill="#FFFFFF" fill-rule="nonzero"></path>
            <path d="M126.232,108.591 C126.232,104.631 129.423,101.417 133.407,101.417 C136.178,101.417 138.601,103.001 139.789,105.33 L136.714,106.89 C136.109,105.679 134.898,104.911 133.407,104.911 C131.287,104.911 129.704,106.471 129.704,108.591 C129.704,110.711 131.287,112.271 133.407,112.271 C134.898,112.271 136.109,111.503 136.714,110.292 L139.789,111.852 C138.601,114.181 136.178,115.765 133.407,115.765 C129.423,115.765 126.232,112.551 126.232,108.591" id="Fill-17" fill="#FFFFFF" fill-rule="nonzero"></path>
            <path d="M151.995,108.591 C151.995,106.471 150.412,104.911 148.315,104.911 C146.195,104.911 144.612,106.471 144.612,108.591 C144.612,110.711 146.195,112.271 148.315,112.271 C150.412,112.271 151.995,110.711 151.995,108.591 Z M141.14,108.591 C141.14,104.631 144.331,101.417 148.315,101.417 C152.275,101.417 155.489,104.631 155.489,108.591 C155.489,112.551 152.275,115.765 148.315,115.765 C144.331,115.765 141.14,112.551 141.14,108.591 Z" id="Fill-18" fill="#FFFFFF" fill-rule="nonzero"></path>
            <polyline id="Fill-19" fill="#FFFFFF" fill-rule="nonzero" points="171.141 101.603 171.141 115.579 167.392 115.579 161.103 107.007 161.103 115.579 157.539 115.579 157.539 101.603 161.266 101.603 167.578 110.152 167.578 101.603 171.141 101.603"></polyline>
            <path d="M173.215,108.591 C173.215,104.631 176.407,101.417 180.39,101.417 C183.162,101.417 185.583,103.001 186.772,105.33 L183.698,106.89 C183.091,105.679 181.88,104.911 180.39,104.911 C178.27,104.911 176.687,106.471 176.687,108.591 C176.687,110.711 178.27,112.271 180.39,112.271 C181.88,112.271 183.091,111.503 183.698,110.292 L186.772,111.852 C185.583,114.181 183.162,115.765 180.39,115.765 C176.407,115.765 173.215,112.551 173.215,108.591" id="Fill-20" fill="#FFFFFF" fill-rule="nonzero"></path>
            <path d="M195.693,106.145 C195.693,105.306 195.087,104.701 194.248,104.701 L192.176,104.701 L192.176,107.589 L194.248,107.589 C195.087,107.589 195.693,106.984 195.693,106.145 Z M200.258,115.579 L196.251,115.579 L192.992,110.455 L192.176,110.455 L192.176,115.579 L188.613,115.579 L188.613,101.603 L194.83,101.603 C197.324,101.603 199.118,103.583 199.118,106.006 C199.118,107.916 197.998,109.476 196.392,110.035 L200.258,115.579 Z" id="Fill-21" fill="#FFFFFF" fill-rule="nonzero"></path>
            <polyline id="Fill-22" fill="#FFFFFF" fill-rule="nonzero" points="206.376 104.701 206.376 107.053 210.686 107.053 210.686 110.129 206.376 110.129 206.376 112.48 211.477 112.48 211.477 115.579 202.813 115.579 202.813 101.603 211.477 101.603 211.477 104.701 206.376 104.701"></polyline>
            <polyline id="Fill-23" fill="#FFFFFF" fill-rule="nonzero" points="224.439 104.701 221.014 104.701 221.014 115.579 217.474 115.579 217.474 104.701 214.05 104.701 214.05 101.603 224.439 101.603 224.439 104.701"></polyline>
            <polyline id="Fill-24" fill="#FFFFFF" fill-rule="nonzero" points="229.931 104.701 229.931 107.053 234.241 107.053 234.241 110.129 229.931 110.129 229.931 112.48 235.033 112.48 235.033 115.579 226.368 115.579 226.368 101.603 235.033 101.603 235.033 104.701 229.931 104.701"></polyline>
            <path d="M126.232,131.786 L129.144,129.969 C129.633,131.017 130.611,131.669 131.823,131.669 C132.731,131.669 133.197,131.273 133.197,130.714 C133.197,128.594 126.838,129.759 126.838,124.915 C126.838,121.933 129.285,120.651 131.496,120.651 C133.244,120.651 134.898,121.443 135.992,122.724 L133.663,124.984 C132.917,124.192 132.149,123.772 131.45,123.772 C130.891,123.772 130.425,124.052 130.425,124.658 C130.425,126.777 136.76,125.45 136.76,130.76 C136.76,133.439 134.454,135 131.776,135 C129.213,135 127.164,133.555 126.232,131.786" id="Fill-25" fill="#FFFFFF" fill-rule="nonzero"></path>
            <path d="M148.92,127.826 C148.92,125.706 147.336,124.145 145.24,124.145 C143.12,124.145 141.537,125.706 141.537,127.826 C141.537,129.945 143.12,131.506 145.24,131.506 C147.336,131.506 148.92,129.945 148.92,127.826 Z M138.066,127.826 C138.066,123.866 141.257,120.651 145.24,120.651 C149.2,120.651 152.413,123.866 152.413,127.826 C152.413,131.786 149.2,135 145.24,135 C141.257,135 138.066,131.786 138.066,127.826 Z" id="Fill-26" fill="#FFFFFF" fill-rule="nonzero"></path>
            <polyline id="Fill-27" fill="#FFFFFF" fill-rule="nonzero" points="162.478 131.716 162.478 134.813 154.465 134.813 154.465 120.839 158.028 120.839 158.028 131.716 162.478 131.716"></polyline>
            <path d="M163.689,130.365 L163.689,120.839 L167.252,120.839 L167.252,129.689 C167.252,130.924 168.324,131.902 169.675,131.902 C171.026,131.902 172.097,130.924 172.097,129.689 L172.097,120.839 L175.662,120.839 L175.662,130.365 C175.662,132.973 173.03,135 169.675,135 C166.321,135 163.689,132.973 163.689,130.365" id="Fill-28" fill="#FFFFFF" fill-rule="nonzero"></path>
            <polyline id="Fill-29" fill="#FFFFFF" fill-rule="nonzero" points="188.417 123.935 184.993 123.935 184.993 134.813 181.453 134.813 181.453 123.935 178.029 123.935 178.029 120.839 188.417 120.839 188.417 123.935"></polyline>
            <polygon id="Fill-30" fill="#FFFFFF" fill-rule="nonzero" points="190.97 134.813 194.534 134.813 194.534 120.839 190.97 120.839"></polygon>
            <path d="M207.554,127.826 C207.554,125.706 205.97,124.145 203.874,124.145 C201.754,124.145 200.171,125.706 200.171,127.826 C200.171,129.945 201.754,131.506 203.874,131.506 C205.97,131.506 207.554,129.945 207.554,127.826 Z M196.7,127.826 C196.7,123.866 199.892,120.651 203.874,120.651 C207.834,120.651 211.048,123.866 211.048,127.826 C211.048,131.786 207.834,135 203.874,135 C199.892,135 196.7,131.786 196.7,127.826 Z" id="Fill-31" fill="#FFFFFF" fill-rule="nonzero"></path>
            <polyline id="Fill-32" fill="#FFFFFF" fill-rule="nonzero" points="226.702 120.839 226.702 134.813 222.953 134.813 216.663 126.242 216.663 134.813 213.1 134.813 213.1 120.839 216.827 120.839 223.138 129.386 223.138 120.839 226.702 120.839"></polyline>
            <path d="M228.286,131.786 L231.198,129.969 C231.687,131.017 232.664,131.669 233.876,131.669 C234.785,131.669 235.25,131.273 235.25,130.714 C235.25,128.594 228.892,129.759 228.892,124.915 C228.892,121.933 231.337,120.651 233.55,120.651 C235.297,120.651 236.952,121.443 238.046,122.724 L235.717,124.984 C234.971,124.192 234.203,123.772 233.503,123.772 C232.945,123.772 232.479,124.052 232.479,124.658 C232.479,126.777 238.814,125.45 238.814,130.76 C238.814,133.439 236.508,135 233.829,135 C231.267,135 229.218,133.555 228.286,131.786" id="Fill-33" fill="#FFFFFF" fill-rule="nonzero"></path>
        </g>
    </g>
</svg>